<svg width="102" height="102" viewBox="0 0 102 102" fill="none" xmlns="http://www.w3.org/2000/svg">
<path d="M62.8474 63.7383V71.1211H37.6287V64.8398L48.8787 54.9023C50.238 53.6992 51.2146 52.6602 51.8084 51.7852C52.4177 50.9102 52.7224 49.9648 52.7224 48.9492C52.7224 47.9961 52.449 47.207 51.9021 46.582C51.3709 45.957 50.488 45.6445 49.2537 45.6445C48.1755 45.6445 47.1443 45.9258 46.1599 46.4883C45.1912 47.0352 44.1912 47.8867 43.1599 49.043L37.5818 43.3711C38.9099 41.5898 40.6599 40.1836 42.8318 39.1523C45.0193 38.1211 47.5271 37.6055 50.3552 37.6055C53.0427 37.6055 55.2693 38.0586 57.0349 38.9648C58.8162 39.8555 60.1209 41.043 60.949 42.5273C61.7927 44.0117 62.2146 45.6367 62.2146 47.4023C62.2146 49.0898 61.9177 50.6523 61.324 52.0898C60.7302 53.5117 59.9099 54.832 58.863 56.0508C57.8162 57.2539 56.5037 58.5195 54.9255 59.8477L50.238 63.7383H62.8474Z" fill="#1873B4"/>
<mask id="path-2-inside-1_1621_12071" fill="white">
<path d="M101.701 50.8503C101.701 78.9342 78.9342 101.701 50.8503 101.701C22.7665 101.701 0 78.9342 0 50.8503C0 22.7665 22.7665 0 50.8503 0C78.9342 0 101.701 22.7665 101.701 50.8503ZM7.70098 50.8503C7.70098 74.681 27.0196 93.9996 50.8503 93.9996C74.681 93.9996 93.9996 74.681 93.9996 50.8503C93.9996 27.0196 74.681 7.70098 50.8503 7.70098C27.0196 7.70098 7.70098 27.0196 7.70098 50.8503Z"/>
</mask>
<path d="M101.701 50.8503C101.701 78.9342 78.9342 101.701 50.8503 101.701C22.7665 101.701 0 78.9342 0 50.8503C0 22.7665 22.7665 0 50.8503 0C78.9342 0 101.701 22.7665 101.701 50.8503ZM7.70098 50.8503C7.70098 74.681 27.0196 93.9996 50.8503 93.9996C74.681 93.9996 93.9996 74.681 93.9996 50.8503C93.9996 27.0196 74.681 7.70098 50.8503 7.70098C27.0196 7.70098 7.70098 27.0196 7.70098 50.8503Z" stroke="#DDF1F8" stroke-width="10" mask="url(#path-2-inside-1_1621_12071)"/>
<mask id="path-3-inside-2_1621_12071" fill="white">
<path d="M50.8503 0.000541687C37.364 0.000541687 24.43 5.35797 14.8937 14.8943C5.35743 24.4305 1.01819e-06 37.3645 0 50.8509C-1.01819e-06 64.3372 5.35743 77.2712 14.8937 86.8075C24.43 96.3437 37.364 101.701 50.8503 101.701V94.0002C39.4064 94.0002 28.4312 89.4541 20.3391 81.362C12.2471 73.27 7.70098 62.2948 7.70098 50.8509C7.70099 39.4069 12.2471 28.4317 20.3391 20.3397C28.4312 12.2476 39.4064 7.70153 50.8503 7.70152L50.8503 0.000541687Z"/>
</mask>
<path d="M50.8503 0.000541687C37.364 0.000541687 24.43 5.35797 14.8937 14.8943C5.35743 24.4305 1.01819e-06 37.3645 0 50.8509C-1.01819e-06 64.3372 5.35743 77.2712 14.8937 86.8075C24.43 96.3437 37.364 101.701 50.8503 101.701V94.0002C39.4064 94.0002 28.4312 89.4541 20.3391 81.362C12.2471 73.27 7.70098 62.2948 7.70098 50.8509C7.70099 39.4069 12.2471 28.4317 20.3391 20.3397C28.4312 12.2476 39.4064 7.70153 50.8503 7.70152L50.8503 0.000541687Z" stroke="#1873B4" stroke-width="10" mask="url(#path-3-inside-2_1621_12071)"/>
</svg>
