<svg width="37" height="30" viewBox="0 0 37 30" fill="none" xmlns="http://www.w3.org/2000/svg">
<path d="M11.6345 30C25.5984 30 33.2348 18.4606 33.2348 8.4507C33.2348 8.12113 33.2263 7.79577 33.2136 7.47042C34.696 6.40141 35.9835 5.0662 37 3.5493C35.6405 4.15352 34.175 4.55916 32.6418 4.74085C34.2089 3.80282 35.4117 2.31972 35.9793 0.553521C34.5138 1.41972 32.8875 2.05352 31.1595 2.39155C29.7745 0.921127 27.8008 0 25.6196 0C21.4266 0 18.0256 3.39296 18.0256 7.57183C18.0256 8.16761 18.0934 8.74225 18.2247 9.3C11.914 8.9831 6.31914 5.97042 2.57509 1.38592C1.92285 2.50563 1.5459 3.80704 1.5459 5.19296C1.5459 7.82113 2.88427 10.1408 4.92571 11.4972C3.68052 11.4592 2.51156 11.1169 1.48661 10.5507C1.48661 10.5803 1.48661 10.6141 1.48661 10.6479C1.48661 14.3155 4.10405 17.3789 7.57704 18.0718C6.9375 18.2451 6.26831 18.338 5.57795 18.338C5.09089 18.338 4.61229 18.2916 4.15064 18.2028C5.1163 21.2113 7.9201 23.4 11.2406 23.4634C8.64011 25.4958 5.37042 26.7042 1.81273 26.7042C1.1986 26.7042 0.597184 26.6704 0 26.5986C3.35863 28.7451 7.34833 30 11.6345 30" fill="white"/>
</svg>
