<svg width="259" height="252" viewBox="0 0 259 252" fill="none" xmlns="http://www.w3.org/2000/svg">
<g clip-path="url(#clip0_1621_12118)">
<path d="M189.385 91.8882C201.878 91.8882 212.005 81.795 212.005 69.3445C212.005 56.8939 201.878 46.8008 189.385 46.8008C176.893 46.8008 166.766 56.8939 166.766 69.3445C166.766 81.795 176.893 91.8882 189.385 91.8882Z" fill="#53B8DE"/>
<path d="M94.057 46.8394C106.549 46.8394 116.677 36.7462 116.677 24.2957C116.677 11.8451 106.549 1.75195 94.057 1.75195C81.5646 1.75195 71.4375 11.8451 71.4375 24.2957C71.4375 36.7462 81.5646 46.8394 94.057 46.8394Z" fill="#1873B4"/>
<path d="M85.1274 136.474C92.0295 148.557 105.033 156.75 119.987 156.841C134.942 156.944 148.048 148.918 155.119 136.938C158.596 131.038 160.625 124.171 160.677 116.842C160.728 109.499 158.789 102.62 155.39 96.6682C148.488 84.5847 135.485 76.3917 120.53 76.3015C105.575 76.2114 92.469 84.224 85.3988 96.2044C81.9218 102.104 79.8926 108.971 79.8409 116.301C79.7892 123.643 81.728 130.522 85.1274 136.474Z" fill="#1873B4"/>
<path opacity="0.4" d="M155.106 136.936C158.583 131.036 160.612 124.17 160.664 116.84L79.8409 116.299C79.7892 123.642 81.728 130.521 85.1274 136.472L155.119 136.936H155.106Z" fill="#53B8DE"/>
<path opacity="0.7" d="M155.377 96.6552L85.3861 96.1914C81.9091 102.091 79.8798 108.958 79.8281 116.288L160.651 116.829C160.703 109.486 158.764 102.607 155.364 96.6552H155.377Z" fill="#53B8DE"/>
<path d="M85.3984 96.1907L155.39 96.6545C148.488 84.5711 135.485 76.378 120.53 76.2879C105.575 76.1977 92.4687 84.2104 85.3984 96.1907Z" fill="#53B8DE"/>
<path d="M115.061 221.199C127.553 221.199 137.68 211.106 137.68 198.655C137.68 186.204 127.553 176.111 115.061 176.111C102.569 176.111 92.4414 186.204 92.4414 198.655C92.4414 211.106 102.569 221.199 115.061 221.199Z" fill="#1873B4"/>
<path opacity="0.4" d="M115.061 221.199C127.553 221.199 137.68 211.106 137.68 198.655C137.68 186.204 127.553 176.111 115.061 176.111C102.569 176.111 92.4414 186.204 92.4414 198.655C92.4414 211.106 102.569 221.199 115.061 221.199Z" fill="#53B8DE"/>
<path d="M30.143 168.421C42.6354 168.421 52.7625 158.328 52.7625 145.878C52.7625 133.427 42.6354 123.334 30.143 123.334C17.6505 123.334 7.52344 133.427 7.52344 145.878C7.52344 158.328 17.6505 168.421 30.143 168.421Z" fill="#1873B4"/>
<path opacity="0.7" d="M30.143 168.421C42.6354 168.421 52.7625 158.328 52.7625 145.878C52.7625 133.427 42.6354 123.334 30.143 123.334C17.6505 123.334 7.52344 133.427 7.52344 145.878C7.52344 158.328 17.6505 168.421 30.143 168.421Z" fill="#53B8DE"/>
<path d="M186.077 188.865C198.569 188.865 208.696 178.772 208.696 166.321C208.696 153.871 198.569 143.777 186.077 143.777C173.584 143.777 163.457 153.871 163.457 166.321C163.457 178.772 173.584 188.865 186.077 188.865Z" fill="#1873B4"/>
<path opacity="0.7" d="M186.077 188.865C198.569 188.865 208.696 178.772 208.696 166.321C208.696 153.871 198.569 143.777 186.077 143.777C173.584 143.777 163.457 153.871 163.457 166.321C163.457 178.772 173.584 188.865 186.077 188.865Z" fill="#53B8DE"/>
<path d="M149.018 224.844C149.147 224.535 149.225 224.2 149.225 223.852C149.225 223.169 148.941 222.512 148.462 222.035C148.346 221.919 148.217 221.804 148.062 221.713C147.932 221.623 147.777 221.546 147.622 221.481C147.467 221.417 147.299 221.366 147.144 221.327C146.291 221.159 145.399 221.443 144.804 222.035C144.326 222.512 144.055 223.169 144.055 223.852C144.055 224.2 144.119 224.535 144.249 224.844C144.378 225.153 144.559 225.436 144.804 225.681C145.296 226.171 145.942 226.428 146.64 226.428C147.338 226.428 147.971 226.171 148.462 225.681C148.708 225.436 148.889 225.153 149.018 224.844Z" fill="black"/>
<path d="M137.875 214.294C136.712 213.456 135.096 213.701 134.256 214.848C133.416 216.007 133.674 217.617 134.825 218.455C135.277 218.79 135.82 218.944 136.337 218.944C137.138 218.944 137.927 218.584 138.431 217.888C139.271 216.741 139.025 215.131 137.875 214.294V214.294Z" fill="black"/>
<path d="M41.5442 74.6528C42.1258 74.6528 42.7074 74.4596 43.1857 74.0731C44.2843 73.1585 44.4395 71.5353 43.5347 70.4404C42.6299 69.3454 41.0013 69.1908 39.9026 70.0925C38.791 70.9943 38.6359 72.6303 39.5407 73.7253C40.0577 74.3436 40.7945 74.6528 41.5442 74.6528V74.6528Z" fill="black"/>
<path d="M33.1681 61.9508C32.0695 62.8655 31.9143 64.4886 32.8191 65.5836C33.3232 66.2019 34.06 66.524 34.8096 66.524C35.3913 66.524 35.9729 66.3308 36.4512 65.9314C37.5628 65.0297 37.7049 63.4065 36.8002 62.3115C35.8954 61.2037 34.2668 61.0491 33.1681 61.9508V61.9508Z" fill="black"/>
<path d="M26.4337 53.8211C25.3351 54.7228 25.18 56.346 26.0848 57.4409C26.5888 58.0593 27.3385 58.3813 28.0753 58.3813C28.6569 58.3813 29.2386 58.1881 29.7168 57.7888C30.8284 56.887 30.9835 55.2639 30.0658 54.1689C29.161 53.0739 27.5324 52.9193 26.4337 53.8211V53.8211Z" fill="black"/>
<path d="M224.695 105.312C225.161 105.66 225.704 105.827 226.246 105.827C227.035 105.827 227.81 105.467 228.314 104.797C229.168 103.65 228.948 102.04 227.797 101.19C226.66 100.327 225.044 100.559 224.178 101.705C223.325 102.839 223.558 104.462 224.695 105.312V105.312Z" fill="black"/>
<path d="M206.884 91.9786C207.349 92.3264 207.892 92.5067 208.435 92.5067C209.224 92.5067 209.999 92.146 210.516 91.4762C211.369 90.3297 211.137 88.7194 209.999 87.8563C208.849 87.0061 207.233 87.2379 206.38 88.3716C205.514 89.5181 205.747 91.1283 206.884 91.9786V91.9786Z" fill="black"/>
<path d="M215.79 98.652C216.256 98.9998 216.798 99.1672 217.341 99.1672C218.13 99.1672 218.905 98.8065 219.409 98.1367C220.275 97.003 220.043 95.3799 218.892 94.5297C217.755 93.6666 216.139 93.8985 215.286 95.045C214.42 96.1786 214.653 97.7889 215.79 98.652V98.652Z" fill="black"/>
<path d="M174.727 33.2103C174.197 31.8963 172.697 31.2522 171.379 31.7804C170.048 32.3085 169.401 33.8158 169.931 35.1297C170.332 36.1474 171.314 36.7529 172.335 36.7529C172.658 36.7529 172.982 36.6885 173.292 36.5725C174.623 36.0444 175.256 34.5372 174.727 33.2103V33.2103Z" fill="black"/>
<path d="M176.64 47.4697C176.963 47.4697 177.286 47.4053 177.597 47.2764C178.928 46.7483 179.574 45.2539 179.044 43.9271C178.514 42.6131 177.002 41.969 175.684 42.4972C174.352 43.0253 173.706 44.5326 174.236 45.8465C174.65 46.8513 175.619 47.4697 176.64 47.4697V47.4697Z" fill="black"/>
<path d="M204.689 185.619C203.578 186.521 203.423 188.157 204.34 189.252C204.844 189.87 205.581 190.192 206.331 190.192C206.913 190.192 207.494 189.999 207.972 189.599C209.071 188.698 209.239 187.074 208.321 185.98C207.417 184.872 205.788 184.717 204.689 185.619V185.619Z" fill="black"/>
<path d="M214.252 197.224C215.364 196.323 215.519 194.699 214.614 193.605C213.709 192.497 212.08 192.342 210.969 193.244C209.87 194.146 209.715 195.782 210.62 196.877C211.124 197.495 211.874 197.817 212.623 197.817C213.192 197.817 213.774 197.624 214.252 197.224V197.224Z" fill="black"/>
<path d="M42.2777 117.253C40.9981 116.608 39.447 117.124 38.8008 118.386C38.1545 119.662 38.6586 121.207 39.9382 121.851C40.313 122.045 40.7137 122.135 41.1015 122.135C42.0451 122.135 42.9628 121.62 43.4152 120.718C44.0614 119.455 43.5444 117.897 42.2777 117.253V117.253Z" fill="black"/>
<path d="M47.5382 106.884C46.2715 106.24 44.7205 106.742 44.0742 108.017C43.4279 109.28 43.932 110.839 45.2117 111.47C45.5865 111.663 45.9872 111.753 46.3749 111.753C47.3185 111.753 48.2233 111.238 48.6886 110.336C49.3349 109.074 48.8178 107.528 47.5382 106.884Z" fill="black"/>
<path d="M71.5671 59.58C71.942 59.7732 72.3426 59.8634 72.7304 59.8634C73.674 59.8634 74.5917 59.3481 75.0441 58.4464C75.6903 57.171 75.1733 55.6252 73.9066 54.9811C72.627 54.337 71.076 54.8522 70.4297 56.1147C69.7834 57.39 70.2875 58.9359 71.5671 59.58Z" fill="black"/>
<path d="M76.8406 49.1964C77.2154 49.3896 77.6161 49.4798 78.0038 49.4798C78.9474 49.4798 79.8522 48.9645 80.3046 48.0628C80.9508 46.8003 80.4468 45.2545 79.1671 44.6104C77.9004 43.9663 76.3494 44.4687 75.7031 45.744C75.0568 47.0064 75.5609 48.5523 76.8406 49.1964Z" fill="black"/>
<path d="M66.2952 69.9632C66.6701 70.1436 67.0707 70.2337 67.4585 70.2337C68.4021 70.2337 69.3198 69.7184 69.7722 68.8296C70.4184 67.5542 69.9014 66.0084 68.6347 65.3643C67.3551 64.7202 65.8041 65.2226 65.1578 66.4979C64.5115 67.7732 65.0285 69.3191 66.2952 69.9632Z" fill="black"/>
<path d="M226.569 196.864C222.614 196.864 218.814 198.359 215.97 201.154C213.127 203.95 211.55 207.685 211.524 211.666C211.498 215.647 213.023 219.395 215.828 222.229C218.633 225.063 222.381 226.635 226.375 226.661H226.479C230.434 226.661 234.156 225.141 236.974 222.371C239.818 219.576 241.394 215.84 241.42 211.859C241.472 203.64 234.815 196.916 226.569 196.852V196.864ZM233.342 218.713C231.494 220.529 229.064 221.521 226.479 221.521H226.414C221.024 221.482 216.655 217.076 216.694 211.705C216.707 209.102 217.741 206.655 219.602 204.826C221.45 203.009 223.88 202.017 226.466 202.017H226.53C231.92 202.056 236.289 206.462 236.25 211.833C236.237 214.436 235.203 216.883 233.342 218.713Z" fill="black"/>
<path d="M106.272 69.654C104.902 70.0534 104.101 71.4704 104.488 72.8359C104.811 73.9695 105.846 74.7167 106.97 74.7167C107.203 74.7167 107.448 74.678 107.681 74.6136C109.051 74.2272 109.852 72.7973 109.465 71.4318C109.077 70.0663 107.642 69.2676 106.272 69.654Z" fill="black"/>
<path d="M106.648 61.5372C106.26 60.1717 104.826 59.373 103.456 59.7595C102.086 60.146 101.284 61.5759 101.672 62.9414C101.995 64.075 103.029 64.8222 104.154 64.8222C104.386 64.8222 104.632 64.7835 104.865 64.7191C106.248 64.3326 107.036 62.9027 106.648 61.5372Z" fill="black"/>
<path d="M101.35 54.9296C101.583 54.9296 101.815 54.8909 102.048 54.8265C103.431 54.4401 104.22 53.0102 103.832 51.6446C103.444 50.2791 102.009 49.4805 100.639 49.8669C99.2691 50.2663 98.4678 51.6833 98.8555 53.0488C99.1787 54.1824 100.226 54.9296 101.35 54.9296V54.9296Z" fill="black"/>
<path d="M187.123 134.812C185.688 134.722 184.473 135.817 184.396 137.234C184.305 138.651 185.391 139.874 186.826 139.952C186.878 139.952 186.929 139.952 186.981 139.952C188.338 139.952 189.476 138.882 189.553 137.517C189.631 136.1 188.545 134.876 187.123 134.799V134.812Z" fill="black"/>
<path d="M187.857 121.982C186.436 121.892 185.208 122.987 185.13 124.404C185.04 125.821 186.138 127.032 187.56 127.122H187.702C189.072 127.122 190.21 126.065 190.287 124.7C190.378 123.283 189.279 122.059 187.857 121.982Z" fill="black"/>
<path d="M188.594 109.137C187.173 109.059 185.958 110.142 185.867 111.571C185.79 112.988 186.875 114.199 188.297 114.29H188.452C189.809 114.29 190.947 113.233 191.024 111.855C191.115 110.438 190.029 109.227 188.594 109.137Z" fill="black"/>
<path d="M189.346 96.3059C187.911 96.2286 186.696 97.3107 186.605 98.7277C186.528 100.158 187.614 101.369 189.048 101.446C189.087 101.446 189.139 101.446 189.191 101.446C190.548 101.446 191.698 100.389 191.776 99.0111C191.853 97.5941 190.767 96.3703 189.346 96.293V96.3059Z" fill="black"/>
<path d="M167.255 86.2977C168.535 85.6664 169.052 84.1206 168.431 82.8453C167.798 81.5699 166.247 81.0418 164.967 81.673C163.688 82.3042 163.158 83.8372 163.791 85.1125C164.243 86.0271 165.161 86.5553 166.105 86.5553C166.492 86.5553 166.88 86.478 167.255 86.2977V86.2977Z" fill="black"/>
<path d="M57.3645 140.157C58.6441 139.526 59.174 137.993 58.5407 136.705C57.9073 135.43 56.3563 134.914 55.0767 135.533C53.797 136.164 53.2671 137.71 53.9004 138.985C54.3528 139.9 55.2705 140.428 56.227 140.428C56.6019 140.428 56.9896 140.338 57.3645 140.157V140.157Z" fill="black"/>
<path d="M157.447 88.23C156.814 86.9547 155.263 86.4265 153.983 87.0578C152.703 87.689 152.173 89.2348 152.807 90.5102C153.246 91.4248 154.164 91.953 155.12 91.953C155.508 91.953 155.896 91.8628 156.258 91.6824C157.537 91.0512 158.067 89.5053 157.447 88.23V88.23Z" fill="black"/>
<path d="M77.0602 124.763C75.7676 125.394 75.2506 126.927 75.871 128.215C76.3234 129.117 77.2411 129.645 78.1976 129.645C78.5854 129.645 78.9732 129.568 79.3351 129.388C80.6147 128.756 81.1446 127.21 80.5113 125.935C79.8909 124.66 78.3398 124.132 77.0602 124.763V124.763Z" fill="black"/>
<path d="M68.3488 134.772C69.6285 134.141 70.1584 132.595 69.5251 131.32C68.8917 130.045 67.3536 129.516 66.061 130.148C64.7814 130.779 64.2515 132.325 64.8848 133.6C65.3372 134.502 66.2549 135.03 67.2114 135.03C67.5862 135.03 67.974 134.953 68.3488 134.772Z" fill="black"/>
<path d="M80.4607 220.734C79.3103 221.572 79.0647 223.182 79.9049 224.329C80.409 225.024 81.1974 225.385 81.9988 225.385C82.5158 225.385 83.0587 225.23 83.5111 224.895C84.6744 224.058 84.9199 222.435 84.0798 221.301C83.2396 220.142 81.6239 219.897 80.4607 220.734Z" fill="black"/>
<path d="M90.7503 213.251C89.5999 214.088 89.3414 215.698 90.1816 216.845C90.6986 217.54 91.4871 217.901 92.2755 217.901C92.8055 217.901 93.3354 217.746 93.8007 217.411C94.9511 216.574 95.2096 214.964 94.3694 213.804C93.5293 212.658 91.9007 212.4 90.7503 213.251V213.251Z" fill="black"/>
<path d="M120.026 159.12C118.617 158.952 117.324 159.97 117.156 161.374C117.001 162.791 118.009 164.066 119.431 164.234C119.535 164.247 119.638 164.26 119.729 164.26C121.021 164.26 122.146 163.293 122.301 161.979C122.469 160.562 121.448 159.287 120.026 159.12Z" fill="black"/>
<path d="M118.823 169.387C117.414 169.22 116.121 170.225 115.953 171.642C115.798 173.059 116.806 174.334 118.228 174.502C118.332 174.502 118.422 174.527 118.525 174.527C119.818 174.527 120.942 173.561 121.098 172.247C121.266 170.83 120.244 169.555 118.823 169.387Z" fill="black"/>
<path d="M155.197 144.319C154.007 143.508 152.405 143.804 151.59 144.976C150.789 146.149 151.086 147.759 152.262 148.558C152.702 148.867 153.219 149.021 153.723 149.021C154.55 149.021 155.352 148.622 155.856 147.901C156.67 146.728 156.36 145.118 155.197 144.319V144.319Z" fill="black"/>
<path d="M163.441 149.974C162.265 149.175 160.662 149.471 159.848 150.643C159.047 151.816 159.344 153.413 160.52 154.225C160.96 154.534 161.477 154.676 161.981 154.676C162.808 154.676 163.609 154.289 164.114 153.555C164.915 152.383 164.618 150.785 163.441 149.974V149.974Z" fill="black"/>
<path d="M79.8944 172.866C78.7182 172.067 77.1025 172.376 76.314 173.549C75.4997 174.734 75.8099 176.331 76.9991 177.13C77.4385 177.426 77.9426 177.568 78.4467 177.568C79.274 177.568 80.0883 177.181 80.5794 176.447C81.3808 175.262 81.0835 173.665 79.8944 172.866V172.866Z" fill="black"/>
<path d="M90.8645 183.389C91.6659 182.217 91.3557 180.619 90.1794 179.821C88.9903 179.022 87.3876 179.318 86.5862 180.503C85.7848 181.676 86.095 183.286 87.2712 184.085C87.7236 184.381 88.2277 184.523 88.7189 184.523C89.559 184.523 90.3733 184.123 90.8645 183.389Z" fill="black"/>
<path d="M56.4197 163.23C56.8721 163.526 57.3761 163.668 57.8673 163.668C58.6945 163.668 59.5088 163.268 60.0129 162.534C60.8143 161.362 60.5041 159.764 59.3279 158.966C58.1517 158.167 56.536 158.476 55.7346 159.648C54.9332 160.821 55.2435 162.418 56.4197 163.23V163.23Z" fill="black"/>
<path d="M66.7087 170.172C67.1482 170.481 67.6523 170.623 68.1564 170.623C68.9836 170.623 69.7979 170.224 70.302 169.489C71.1034 168.304 70.7932 166.707 69.604 165.908C68.4278 165.11 66.8251 165.419 66.0237 166.604C65.2223 167.776 65.5325 169.374 66.7087 170.172V170.172Z" fill="black"/>
<path d="M44.3604 98.8317C47.1652 101.666 50.9136 103.237 54.9075 103.263H55.011C58.9661 103.263 62.6887 101.743 65.5064 98.9734C68.35 96.178 69.9269 92.4422 69.9528 88.4616C69.9786 84.481 68.4534 80.7323 65.6486 77.8982C62.8438 75.0642 59.0954 73.4926 55.1014 73.4668H54.998C46.8033 73.4668 40.095 80.0882 40.0433 88.2683C40.0174 92.2489 41.5426 95.9976 44.3475 98.8317H44.3604ZM55.011 78.6068H55.0756C57.6865 78.6196 60.1424 79.6502 61.9778 81.5052C63.8132 83.3603 64.8214 85.8079 64.7955 88.4229C64.7567 93.7819 60.375 98.1103 55.011 98.1103H54.9463C52.3354 98.0974 49.8796 97.0668 48.0441 95.2118C46.2087 93.3568 45.2135 90.8963 45.2264 88.2941C45.2652 82.9352 49.6469 78.6068 55.011 78.6068Z" fill="black"/>
<path d="M163.172 222.191H163.068C154.874 222.191 148.165 228.813 148.114 236.993C148.062 245.212 154.718 251.936 162.965 252.001H163.068C167.024 252.001 170.746 250.481 173.564 247.711C176.407 244.915 177.984 241.18 178.01 237.199C178.062 228.98 171.405 222.243 163.159 222.191H163.172ZM169.945 244.039C168.083 245.869 165.628 246.861 163.004 246.848C157.614 246.809 153.245 242.403 153.284 237.032C153.323 231.673 157.704 227.344 163.068 227.344H163.133C168.523 227.383 172.892 231.789 172.853 237.16C172.84 239.763 171.806 242.21 169.945 244.039Z" fill="black"/>
<path d="M65.2733 222.191H65.1699C56.9751 222.191 50.2668 228.813 50.2151 236.993C50.1634 245.212 56.82 251.936 65.0665 252.001H65.1699C69.1251 252.001 72.8476 250.481 75.6653 247.711C78.5089 244.915 80.0858 241.18 80.1117 237.199C80.1634 228.98 73.5068 222.243 65.2604 222.191H65.2733ZM72.0462 244.039C70.185 245.869 67.6903 246.861 65.1053 246.848C59.7153 246.809 55.3465 242.403 55.3853 237.032C55.4241 231.673 59.8058 227.344 65.1699 227.344H65.2345C70.6244 227.383 74.9932 231.789 74.9544 237.16C74.9415 239.763 73.9075 242.21 72.0462 244.039V244.039Z" fill="black"/>
<path d="M254.695 105.453C251.891 102.619 248.142 101.047 244.148 101.021H244.045C235.85 101.021 229.142 107.643 229.09 115.823C229.038 124.042 235.695 130.779 243.941 130.831H244.045C252.24 130.831 258.948 124.209 259 116.029C259.025 112.049 257.5 108.3 254.695 105.466V105.453ZM244.045 125.678H243.98C238.59 125.639 234.222 121.234 234.26 115.862C234.299 110.503 238.681 106.174 244.045 106.174H244.109C246.72 106.187 249.176 107.218 251.012 109.073C252.847 110.928 253.855 113.375 253.829 115.991C253.791 121.349 249.409 125.678 244.045 125.678Z" fill="black"/>
<path d="M164.761 29.8092H164.864C173.059 29.8092 179.767 23.1878 179.819 15.0077C179.87 6.78888 173.214 0.0644106 164.967 0H164.864C160.909 0 157.186 1.52009 154.369 4.28975C151.525 7.08517 149.948 10.821 149.922 14.8016C149.896 18.7821 151.422 22.5308 154.226 25.3649C157.031 28.199 160.78 29.7706 164.774 29.7963L164.761 29.8092ZM157.988 7.96115C159.836 6.14477 162.266 5.15285 164.851 5.15285H164.916C170.306 5.19149 174.674 9.59718 174.636 14.969C174.597 20.3409 170.202 24.6564 164.786 24.6564C162.176 24.6435 159.72 23.6129 157.884 21.7579C156.049 19.9029 155.054 17.4424 155.067 14.8402C155.079 12.238 156.113 9.79041 157.975 7.96115H157.988Z" fill="black"/>
<path d="M25.6056 28.9471C22.8008 26.113 19.0524 24.5414 15.0584 24.5156H14.955C6.7603 24.5028 0.0520009 31.1242 0.000299148 39.3043C-0.0514026 47.5231 6.6052 54.2605 14.8516 54.312H14.955C23.1498 54.312 29.8581 47.6906 29.9098 39.5104C29.9356 35.5299 28.4104 31.7812 25.6056 28.9471V28.9471ZM14.955 49.172H14.8904C9.5005 49.1334 5.1317 44.7277 5.17048 39.3558C5.20925 33.9969 9.59098 29.6685 14.955 29.6685H15.0197C17.6306 29.6814 20.0864 30.7119 21.9218 32.567C23.7573 34.422 24.7654 36.8696 24.7396 39.4847C24.7008 44.8436 20.3191 49.172 14.955 49.172V49.172Z" fill="black"/>
</g>
<defs>
<clipPath id="clip0_1621_12118">
<rect width="259" height="252" fill="white"/>
</clipPath>
</defs>
</svg>
