<svg width="246" height="172" viewBox="0 0 246 172" fill="none" xmlns="http://www.w3.org/2000/svg">
<path d="M69.1249 54.6191H67.4669H53.4381H51.7801H37.5658H35.56H21.9021H20.2442H12.8008V72.5414H21.7514H23.4442H87.5015H89.1943H98.1449V54.6191H69.1249Z" fill="#53B8DE"/>
<path d="M69.1249 81.9316H67.4669H53.4381H51.7801H37.5658H35.56H21.9021H20.2442H12.8008V99.8539H21.7514H23.4442H87.5015H89.1943H98.1449V81.9316H69.1249Z" fill="#1873B4"/>
<path d="M69.1249 109.24H67.4669H53.4381H51.7801H37.5658H35.56H21.9021H20.2442H12.8008V127.162H21.7514H23.4442H87.5015H89.1943H98.1449V109.24H69.1249Z" fill="#1873B4"/>
<path d="M69.1249 81.9316H67.4669H53.4381H51.7801H37.5658H35.56H21.9021H20.2442H12.8008V99.8539H21.7514H23.4442H87.5015H89.1943H98.1449V81.9316H69.1249Z" fill="#53B8DE"/>
<path d="M69.1249 109.24H67.4669H53.4381H51.7801H37.5658H35.56H21.9021H20.2442H12.8008V127.162H21.7514H23.4442H87.5015H89.1943H98.1449V109.24H69.1249Z" fill="#53B8DE"/>
<path d="M69.1249 135.697H67.4669H53.4381H51.7801H37.5658H35.56H21.9021H20.2442H12.8008V153.62H21.7514H23.4442H87.5015H89.1943H98.1449V135.697H69.1249Z" fill="#1873B4"/>
<path d="M85.8356 70.8347L82.7852 67.2977L87.0605 63.7142L83.0796 59.5141L86.507 56.3262L93.8799 64.0865L85.8356 70.8347Z" fill="black"/>
<path d="M85.8356 98.1472L82.7852 94.5986L87.0605 91.0151L83.0796 86.815L86.507 83.6387L93.8799 91.399L85.8356 98.1472Z" fill="black"/>
<path d="M85.8356 124.602L82.7852 121.056L87.0605 117.476L83.0796 113.279L86.507 110.094L93.8799 117.86L85.8356 124.602Z" fill="black"/>
<path d="M85.8356 151.913L82.7852 148.364L87.0605 144.781L83.0796 140.592L86.507 137.404L93.8799 145.165L85.8356 151.913Z" fill="black"/>
<path d="M159.594 136.551H221.042V74.25H159.594V136.551ZM164.221 78.9414H216.414V131.86H164.221V78.9414Z" fill="black"/>
<path d="M96.4399 27.0966L93.069 23.8965L87.8995 28.8041L82.7301 23.8965L79.3711 27.0966L84.5287 32.0042L79.3711 36.9118L82.7301 40.1119L87.8995 35.2043L93.069 40.1119L96.4399 36.9118L91.2704 32.0042L96.4399 27.0966Z" fill="black"/>
<path d="M55.4747 29.8711H11.9492V34.1383H55.4747V29.8711Z" fill="black"/>
<path d="M106 2L106 172H110L110 2H106Z" fill="black"/>
<path d="M126.309 11.9473H110.094V16.2145H126.309V11.9473Z" fill="black"/>
<path d="M126.309 21.3359H110.094V25.6031H126.309V21.3359Z" fill="black"/>
<path d="M126.309 29.8711H110.094V34.9917H126.309V29.8711Z" fill="black"/>
<path d="M126.309 29.8711H110.094V34.9917H126.309V29.8711Z" fill="black"/>
<rect x="108.328" y="77.6035" width="40.2324" height="55.5943" stroke="black" stroke-width="5"/>
<rect x="2" y="2" width="241.791" height="167.542" stroke="black" stroke-width="4"/>
</svg>
