<svg width="84" height="85" viewBox="0 0 84 85" fill="none" xmlns="http://www.w3.org/2000/svg">
<g clip-path="url(#clip0_1621_12048)">
<path d="M84 13.1441L73.7032 7.26293L64.2732 12.6388L42.1375 0L19.8626 12.7144L10.3177 7.26293L0 13.1441V24.9098L9.7468 30.4679V55.4739L32.2271 68.3018V79.1189L42.5448 85L52.8416 79.1189V67.8446L74.5108 55.4739V30.3304L84 24.9098V13.1441ZM73.7032 8.85094L81.9149 13.5428L73.7032 18.2347L65.4741 13.5428L73.7032 8.85094ZM64.7779 14.7321L73.007 19.424V28.8077L64.7779 24.1158V14.7321ZM11.0139 28.8042V19.424L19.2221 14.7355V24.1158L11.0139 28.8042ZM18.5294 13.5394L10.3177 18.2312L2.0886 13.5428L10.3177 8.85094L18.5294 13.5428V13.5394ZM1.3924 14.7287L9.62148 19.4205V28.8042L1.3924 24.1124V14.7287V14.7287ZM50.7565 67.7518L42.5448 72.4437L34.3157 67.7518L42.5448 63.06L50.7565 67.7518ZM33.6195 68.9411L41.8486 73.633V83.0167L33.6195 78.3248V68.9411ZM43.241 83.0133V73.6296L51.4492 68.9411V78.3214L43.241 83.0098V83.0133ZM51.8808 66.8032L42.5448 61.4685L32.7875 67.03L11.1392 54.6731V30.3235L20.6145 24.9098V13.8728L42.1375 1.58801L63.3855 13.7215V24.9098L73.1219 30.461V54.6799L51.8843 66.8066L51.8808 66.8032ZM82.6076 24.1158L74.3994 28.8042V19.424L82.6076 14.7355V24.1158Z" fill="#333333"/>
<path fill-rule="evenodd" clip-rule="evenodd" d="M60.3895 47.9324C57.4028 49.6063 54.4162 51.3009 51.4469 52.9748C48.5019 54.6488 45.5361 56.3227 42.5703 58.0173V37.679C45.5361 36.0051 48.5019 34.3105 51.4469 32.6366C54.4127 30.942 57.3994 29.2268 60.3443 27.5322C60.3443 30.942 60.3443 34.3311 60.3861 37.7237V47.9358L60.3895 47.9324Z" fill="#1873B4"/>
<path fill-rule="evenodd" clip-rule="evenodd" d="M60.3885 47.9324C58.8847 48.7676 57.4018 49.6063 55.8945 50.4656V30.0861C57.3983 29.2268 58.8812 28.3915 60.3432 27.5322C60.3432 30.942 60.3432 34.3311 60.385 37.7237V47.9358L60.3885 47.9324Z" fill="#53B8DE"/>
<path opacity="0.7" fill-rule="evenodd" clip-rule="evenodd" d="M55.894 50.466C54.4111 51.3012 52.9491 52.1399 51.4453 52.9752V32.6369C52.9491 31.7776 54.4111 30.9423 55.894 30.083V50.4625V50.466Z" fill="#53B8DE"/>
<path opacity="0.4" fill-rule="evenodd" clip-rule="evenodd" d="M51.4474 52.9755C49.9645 53.8107 48.5024 54.6494 47.0195 55.4847V35.167C48.5024 34.3077 49.9645 33.4725 51.4474 32.6338V52.9721V52.9755Z" fill="#53B8DE"/>
<path fill-rule="evenodd" clip-rule="evenodd" d="M60.3462 27.532C57.4013 29.2266 54.4146 30.9418 51.4696 32.6157C48.5247 34.3103 45.538 36.0049 42.5722 37.6788C39.6064 36.0049 36.6406 34.3103 33.6748 32.6157C30.709 30.9418 27.7432 29.2266 24.7773 27.532C27.7432 25.8375 30.7299 24.1635 33.6748 22.4483C36.6615 20.7537 39.6064 19.0626 42.5722 17.3887C45.538 19.0626 48.5038 20.7537 51.4696 22.4483C54.4146 24.1635 57.4013 25.8375 60.3462 27.532Z" fill="#1873B4"/>
<path fill-rule="evenodd" clip-rule="evenodd" d="M60.3477 27.5325C58.8857 28.3677 57.4028 29.2271 55.9199 30.0658C52.9541 28.3712 49.9882 26.6972 47.0224 25.0027C44.0566 23.3081 41.0908 21.5929 38.125 19.919C39.6079 19.0665 41.0908 18.2278 42.5737 17.3926C45.5395 19.0665 48.5053 20.7577 51.4712 22.4522C54.4161 24.1674 57.4028 25.8414 60.3477 27.5359V27.5325Z" fill="#53B8DE"/>
<path opacity="0.7" fill-rule="evenodd" clip-rule="evenodd" d="M55.9194 30.0618C54.4156 30.9418 52.9536 31.777 51.4707 32.6157C48.5048 30.9418 45.539 29.2266 42.5732 27.532C39.6074 25.8374 36.6416 24.1635 33.6758 22.4483C35.1587 21.613 36.6625 20.7537 38.1245 19.915C41.0903 21.589 44.0561 23.3042 47.0219 24.9987C49.9877 26.6933 52.9536 28.3673 55.9194 30.0618Z" fill="#53B8DE"/>
<path opacity="0.4" fill-rule="evenodd" clip-rule="evenodd" d="M51.4662 32.6166C49.9833 33.476 48.5213 34.3112 47.0175 35.1499C44.0517 33.476 41.0859 31.7814 38.1201 30.0662C35.1543 28.3716 32.2094 26.6977 29.2227 25.0031C30.7264 24.1678 32.2094 23.3085 33.6714 22.4492C36.6372 24.1644 39.603 25.8384 42.5688 27.5329C45.5346 29.2275 48.5004 30.9427 51.4662 32.6166Z" fill="#53B8DE"/>
<path d="M42.5883 58.8737L24.0938 48.3282V27.1959L42.5883 16.6504L61.0828 27.1959V48.3282L42.5883 58.8737ZM25.4861 47.5342L42.5883 57.2857L59.6904 47.5342V27.9899L42.5883 18.2384L25.4861 27.9899V47.5342Z" fill="#333333"/>
</g>
<defs>
<clipPath id="clip0_1621_12048">
<rect width="84" height="85" fill="white"/>
</clipPath>
</defs>
</svg>
