<svg width="102" height="102" viewBox="0 0 102 102" fill="none" xmlns="http://www.w3.org/2000/svg">
<mask id="path-1-inside-1_1621_12079" fill="white">
<path d="M101.701 50.8503C101.701 78.9342 78.9342 101.701 50.8503 101.701C22.7665 101.701 0 78.9342 0 50.8503C0 22.7665 22.7665 0 50.8503 0C78.9342 0 101.701 22.7665 101.701 50.8503ZM7.70098 50.8503C7.70098 74.681 27.0196 93.9996 50.8503 93.9996C74.681 93.9996 93.9996 74.681 93.9996 50.8503C93.9996 27.0196 74.681 7.70098 50.8503 7.70098C27.0196 7.70098 7.70098 27.0196 7.70098 50.8503Z"/>
</mask>
<path d="M101.701 50.8503C101.701 78.9342 78.9342 101.701 50.8503 101.701C22.7665 101.701 0 78.9342 0 50.8503C0 22.7665 22.7665 0 50.8503 0C78.9342 0 101.701 22.7665 101.701 50.8503ZM7.70098 50.8503C7.70098 74.681 27.0196 93.9996 50.8503 93.9996C74.681 93.9996 93.9996 74.681 93.9996 50.8503C93.9996 27.0196 74.681 7.70098 50.8503 7.70098C27.0196 7.70098 7.70098 27.0196 7.70098 50.8503Z" stroke="#DDF1F8" stroke-width="10" mask="url(#path-1-inside-1_1621_12079)"/>
<path d="M50.4021 71.5898C46.5271 71.5898 43.574 70.8164 41.5427 69.2695C39.5115 67.7227 38.1287 65.7617 37.3943 63.3867L44.3552 60.2227C45.0115 61.6289 45.7615 62.6758 46.6052 63.3633C47.4646 64.0508 48.5584 64.3945 49.8865 64.3945C51.1209 64.3945 52.074 64.0977 52.7459 63.5039C53.4334 62.9102 53.7771 62.043 53.7771 60.9023C53.7771 59.6992 53.324 58.8477 52.4177 58.3477C51.5271 57.832 50.4412 57.5742 49.1599 57.5742H46.4177V51.2461H48.7849C50.1599 51.2461 51.2224 50.9961 51.9724 50.4961C52.7224 49.9805 53.0974 49.1133 53.0974 47.8945C53.0974 46.832 52.7849 46.0352 52.1599 45.5039C51.5505 44.957 50.6912 44.6836 49.5818 44.6836C48.4099 44.6836 47.4646 44.9883 46.7459 45.5977C46.0427 46.207 45.363 47.1289 44.7068 48.3633L37.9802 45.0117C38.8709 42.5117 40.3943 40.6523 42.5505 39.4336C44.7068 38.2148 47.3552 37.6055 50.4959 37.6055C53.1052 37.6055 55.2771 37.9883 57.0115 38.7539C58.7615 39.5039 60.0584 40.5508 60.9021 41.8945C61.7459 43.2227 62.1677 44.7695 62.1677 46.5352C62.1677 50.5352 59.9568 53.0508 55.5349 54.082V54.1758C58.1287 54.5508 60.0271 55.4102 61.2302 56.7539C62.4334 58.0977 63.0349 59.8164 63.0349 61.9102C63.0349 63.8164 62.5662 65.4961 61.6287 66.9492C60.6912 68.4023 59.2771 69.543 57.3865 70.3711C55.4959 71.1836 53.1677 71.5898 50.4021 71.5898Z" fill="#1873B4"/>
<mask id="path-3-inside-2_1621_12079" fill="white">
<path d="M101.701 50.8503C101.701 40.7931 98.7183 30.9617 93.1308 22.5994C87.5433 14.2371 79.6016 7.71949 70.3099 3.87075C61.0182 0.0220097 50.7939 -0.984996 40.9299 0.977075C31.0659 2.93915 22.0053 7.78217 14.8937 14.8937C7.78217 22.0053 2.93915 31.0659 0.977074 40.9299C-0.984996 50.7939 0.0220098 61.0182 3.87075 70.3099C7.71949 79.6016 14.2371 87.5433 22.5994 93.1308C30.9617 98.7183 40.7931 101.701 50.8503 101.701V94.0186C42.3124 94.0186 33.9663 91.4868 26.8673 86.7434C19.7683 82 14.2353 75.2581 10.968 67.3701C7.7007 59.4821 6.84583 50.8024 8.51149 42.4286C10.1771 34.0548 14.2885 26.3629 20.3257 20.3257C26.3629 14.2885 34.0548 10.1771 42.4286 8.51149C50.8024 6.84583 59.4821 7.7007 67.3701 10.968C75.2581 14.2353 82 19.7683 86.7434 26.8673C91.4868 33.9663 94.0186 42.3124 94.0186 50.8503H101.701Z"/>
</mask>
<path d="M101.701 50.8503C101.701 40.7931 98.7183 30.9617 93.1308 22.5994C87.5433 14.2371 79.6016 7.71949 70.3099 3.87075C61.0182 0.0220097 50.7939 -0.984996 40.9299 0.977075C31.0659 2.93915 22.0053 7.78217 14.8937 14.8937C7.78217 22.0053 2.93915 31.0659 0.977074 40.9299C-0.984996 50.7939 0.0220098 61.0182 3.87075 70.3099C7.71949 79.6016 14.2371 87.5433 22.5994 93.1308C30.9617 98.7183 40.7931 101.701 50.8503 101.701V94.0186C42.3124 94.0186 33.9663 91.4868 26.8673 86.7434C19.7683 82 14.2353 75.2581 10.968 67.3701C7.7007 59.4821 6.84583 50.8024 8.51149 42.4286C10.1771 34.0548 14.2885 26.3629 20.3257 20.3257C26.3629 14.2885 34.0548 10.1771 42.4286 8.51149C50.8024 6.84583 59.4821 7.7007 67.3701 10.968C75.2581 14.2353 82 19.7683 86.7434 26.8673C91.4868 33.9663 94.0186 42.3124 94.0186 50.8503H101.701Z" stroke="#1873B4" stroke-width="10" mask="url(#path-3-inside-2_1621_12079)"/>
</svg>
