<svg width="82" height="85" viewBox="0 0 82 85" fill="none" xmlns="http://www.w3.org/2000/svg">
<g clip-path="url(#clip0_1621_12037)">
<path d="M58.931 85H45.3485V77.2098C41.7874 76.1473 38.5148 74.256 35.8068 71.6933L29.0665 75.5905L22.2753 63.8137L29.0156 59.9165C28.5869 58.1102 28.3704 56.2573 28.3704 54.4C28.3704 52.5428 28.5869 50.6897 29.0156 48.8835L22.2753 44.9863L29.0665 33.2095L35.8068 37.1068C38.5148 34.544 41.7874 32.6528 45.3485 31.5903V23.8H52.1398V25.5H47.0463V32.8865L46.4181 33.0565C42.6914 34.0553 39.2788 36.0315 36.5411 38.7685L36.0827 39.2275L29.6947 35.5343L24.6013 44.37L30.9893 48.0632L30.8195 48.6923C30.3229 50.5538 30.0725 52.4747 30.0725 54.4042C30.0725 56.3337 30.3229 58.2505 30.8195 60.1163L30.9893 60.7452L24.6013 64.4385L29.6947 73.2743L36.0827 69.581L36.5411 70.04C39.2788 72.777 42.6914 74.7533 46.4181 75.752L47.0463 75.922V83.3085H57.2332V75.922L57.8614 75.752C61.5881 74.7533 65.0007 72.777 67.7384 70.04L68.1968 69.581L74.5848 73.2743L77.1315 68.8585L78.6001 69.7085L75.2045 75.599L68.4642 71.7018C65.7562 74.2645 62.4837 76.1558 58.9225 77.2183V85.0085L58.931 85ZM67.42 54.4C67.42 45.9638 60.5651 39.1 52.1398 39.1C43.7144 39.1 36.8595 45.9638 36.8595 54.4C36.8595 62.8363 43.7144 69.7 52.1398 69.7C60.5651 69.7 67.42 62.8363 67.42 54.4ZM65.7222 54.4C65.7222 61.9013 59.6313 68 52.1398 68C44.6482 68 38.5573 61.9013 38.5573 54.4C38.5573 46.8988 44.6482 40.8 52.1398 40.8C59.6313 40.8 65.7222 46.8988 65.7222 54.4ZM23.277 33.3625C25.3483 32.725 27.2541 31.62 28.8543 30.1325L33.8204 33.0013L38.0649 25.6403L33.0988 22.7715C33.3408 21.7133 33.4638 20.6295 33.4638 19.5458C33.4638 18.462 33.3408 17.3825 33.0988 16.32L38.0649 13.4513L33.8204 6.09025L28.8543 8.959C27.2583 7.4715 25.3483 6.3665 23.277 5.729V0H14.7879V5.7375C12.7166 6.375 10.8108 7.48 9.21062 8.9675L4.24453 6.09875L0 13.4555L4.9661 16.3243C4.72416 17.3825 4.60107 18.4663 4.60107 19.55C4.60107 20.6338 4.72416 21.7133 4.9661 22.7758L0 25.6445L4.24453 33.0055L9.21062 30.1368C10.8066 31.6243 12.7166 32.7293 14.7879 33.3668V39.1043H23.277V33.3668V33.3625ZM16.4857 32.062L15.8491 31.8963C13.6164 31.3225 11.5791 30.141 9.94917 28.4793L9.48652 28.0075L4.86423 30.6808L2.31751 26.265L6.93556 23.596L6.76153 22.9628C6.45168 21.8493 6.29463 20.7018 6.29463 19.55C6.29463 18.3983 6.45168 17.2508 6.76153 16.1373L6.93556 15.504L2.31751 12.835L4.86423 8.41925L9.48652 11.0925L9.94917 10.6208C11.5791 8.959 13.6164 7.7775 15.8491 7.20375L16.4857 7.038V1.7H21.5792V7.038L22.2158 7.20375C24.4485 7.7775 26.4858 8.959 28.1157 10.6208L28.5784 11.0925L33.2007 8.41925L35.7474 12.835L31.1294 15.504L31.3034 16.1373C31.6132 17.2508 31.7703 18.3983 31.7703 19.55C31.7703 20.7018 31.6132 21.8493 31.3034 22.9628L31.1294 23.596L35.7474 26.265L33.2007 30.6808L28.5784 28.0075L28.1157 28.4793C26.4858 30.141 24.4485 31.3225 22.2158 31.8963L21.5792 32.062V37.4H16.4857V32.062V32.062ZM22.0885 26.5583C22.5979 26.3373 23.0945 26.0483 23.5614 25.6998C25.2719 24.4333 26.3882 22.5038 26.6217 20.4C26.6556 20.094 26.6726 19.8178 26.6726 19.5458C26.6726 19.2738 26.6556 18.9975 26.6217 18.6915C26.3882 16.592 25.2719 14.6583 23.5614 13.3918C23.0945 13.0475 22.5979 12.7585 22.0885 12.5333C20.1445 11.6833 17.9161 11.6833 15.9764 12.5333C15.4671 12.7543 14.9704 13.0433 14.5035 13.3918C12.793 14.6583 11.6767 16.5878 11.4432 18.6915C11.4093 18.9933 11.3923 19.2738 11.3923 19.5458C11.3923 19.8178 11.4093 20.0983 11.4432 20.4C11.6767 22.5038 12.793 24.4333 14.5035 25.6998C14.9704 26.044 15.4671 26.333 15.9764 26.5583C16.9484 26.9833 17.9756 27.2 19.0325 27.2C20.0893 27.2 21.1165 26.9833 22.0885 26.5583V26.5583ZM21.4094 14.0972C21.8041 14.2672 22.1861 14.4925 22.5554 14.7645C23.8882 15.7505 24.7541 17.2508 24.9366 18.8828C24.9621 19.125 24.9748 19.3418 24.9748 19.55C24.9748 19.7583 24.9621 19.975 24.9366 20.2173C24.7541 21.8493 23.8882 23.3495 22.5554 24.3355C22.1904 24.6075 21.8041 24.8328 21.4094 25.0028C19.8983 25.6658 18.1666 25.6658 16.6555 25.0028C16.2608 24.8328 15.8788 24.6075 15.5095 24.3355C14.1767 23.3495 13.3108 21.8493 13.1283 20.2173C13.1029 19.9793 13.0901 19.7583 13.0901 19.55C13.0901 19.3418 13.1029 19.125 13.1283 18.8828C13.3108 17.2508 14.1767 15.7505 15.5095 14.7645C15.8745 14.4925 16.2608 14.2672 16.6555 14.0972C17.411 13.7657 18.209 13.6 19.0325 13.6C19.8559 13.6 20.6539 13.7657 21.4094 14.0972V14.0972Z" fill="#333333"/>
<path d="M75.91 54.4001C75.91 52.5429 75.6935 50.6899 75.2648 48.8836L82.0051 44.9864L78.6095 39.0959L75.2139 33.2054L68.4736 37.1026C67.1196 35.8234 65.6297 34.7099 64.0253 33.7834C62.4209 32.8569 60.7146 32.1174 58.9319 31.5861V23.7959H52.1406V39.0959C54.9208 39.0959 57.5269 39.8481 59.7765 41.1529C62.094 42.4959 64.0253 44.4296 65.3666 46.7501C66.6696 49.0026 67.4209 51.6121 67.4209 54.3959C67.4209 57.1796 66.6696 59.7891 65.3666 62.0416L77.1366 68.8459L78.6052 69.6959L82.0009 63.8054L75.2606 59.9081C75.6893 58.1019 75.9057 56.2489 75.9057 54.3916L75.91 54.4001Z" fill="#1873B4"/>
<path opacity="0.4" d="M75.2108 33.2093L68.4705 37.1066C67.1165 35.8273 65.6266 34.7138 64.0222 33.7873L63.1733 35.2578L59.7734 41.1526C62.0909 42.4956 64.0222 44.4293 65.3635 46.7498L77.1335 39.9456L78.6022 39.0956L75.2065 33.2051L75.2108 33.2093Z" fill="#53B8DE"/>
<path d="M75.2615 59.9169C75.6902 58.1106 75.9067 56.2576 75.9067 54.4004H67.4176C67.4176 57.1841 66.6664 59.7936 65.3633 62.0461L77.1334 68.8504L78.602 69.7004L81.9976 63.8099L75.2573 59.9126L75.2615 59.9169Z" fill="#53B8DE"/>
<path opacity="0.7" d="M82.0015 44.9911L78.6059 39.1006L77.1373 39.9506L65.3672 46.7548C66.6703 49.0073 67.4215 51.6168 67.4215 54.4006H75.9106C75.9106 52.5433 75.6941 50.6903 75.2654 48.8841L82.0057 44.9868L82.0015 44.9911Z" fill="#53B8DE"/>
</g>
<defs>
<clipPath id="clip0_1621_12037">
<rect width="82" height="85" fill="white"/>
</clipPath>
</defs>
</svg>
