<svg width="243" height="176" viewBox="0 0 243 176" fill="none" xmlns="http://www.w3.org/2000/svg">
<g clip-path="url(#clip0_1621_12214)">
<path d="M243.002 175.999H0.0273438V18.2308H5.19701V170.824H237.832V18.2567H243.002V175.999V175.999ZM15.9758 6.50781C14.5541 6.50781 13.4038 7.65941 13.4038 9.08273C13.4038 10.506 14.5541 11.6447 15.9758 11.6447C17.3974 11.6447 18.5477 10.4931 18.5477 9.08273C18.5477 7.67235 17.3974 6.50781 15.9758 6.50781V6.50781ZM26.2763 6.54663C24.8546 6.54663 23.7044 7.69823 23.7044 9.12155C23.7044 10.5449 24.8546 11.6965 26.2763 11.6965C27.698 11.6965 28.8482 10.5449 28.8482 9.12155C28.8482 7.69823 27.698 6.54663 26.2763 6.54663ZM36.6156 6.50781C35.194 6.50781 34.0437 7.65941 34.0437 9.08273C34.0437 10.506 35.194 11.6447 36.6156 11.6447C38.0373 11.6447 39.1875 10.4931 39.1875 9.08273C39.1875 7.67235 38.0373 6.50781 36.6156 6.50781V6.50781ZM54.1149 73.2356L33.2554 56.9839L54.1149 40.7322L50.9356 36.6434L24.8288 56.9839L50.9356 77.3245L54.1149 73.2356V73.2356ZM217.515 131.708L191.408 111.368L188.229 115.456L209.089 131.708L188.229 147.96L191.408 152.049L217.515 131.708V131.708ZM182.18 54.3831H63.4203V59.5588H182.167V54.3831H182.18ZM182.18 89.3192H63.4203V94.4949H182.167V89.3192H182.18ZM156.72 124.255H63.4203V129.431H156.72V124.255ZM184.882 106.541L180.177 104.38L159.757 148.969L164.461 151.13L184.882 106.541V106.541Z" fill="black"/>
<path d="M182.308 0H0V18.2573H243V0H182.308ZM15.9743 11.6453C14.5526 11.6453 13.4023 10.4938 13.4023 9.08337C13.4023 7.67299 14.5526 6.50845 15.9743 6.50845C17.3959 6.50845 18.5462 7.66005 18.5462 9.08337C18.5462 10.5067 17.3959 11.6453 15.9743 11.6453ZM26.2748 11.6971C24.8532 11.6971 23.7029 10.5455 23.7029 9.12219C23.7029 7.69887 24.8532 6.54727 26.2748 6.54727C27.6965 6.54727 28.8467 7.69887 28.8467 9.12219C28.8467 10.5455 27.6965 11.6971 26.2748 11.6971ZM36.6141 11.6453C35.1925 11.6453 34.0422 10.4938 34.0422 9.08337C34.0422 7.67299 35.1925 6.50845 36.6141 6.50845C38.0358 6.50845 39.186 7.66005 39.186 9.08337C39.186 10.5067 38.0358 11.6453 36.6141 11.6453Z" fill="#1873B4"/>
<path d="M243 0H182.309V18.2573H243V0Z" fill="#53B8DE"/>
<path opacity="0.7" d="M182.308 0H121.539V18.2573H182.308V0Z" fill="#53B8DE"/>
<path opacity="0.4" d="M60.7695 0H121.539V18.2573H60.7695V0Z" fill="#53B8DE"/>
</g>
<defs>
<clipPath id="clip0_1621_12214">
<rect width="243" height="176" fill="white"/>
</clipPath>
</defs>
</svg>
