<svg width="82" height="89" viewBox="0 0 82 89" fill="none" xmlns="http://www.w3.org/2000/svg">
<g clip-path="url(#clip0_1621_11993)">
<path d="M27.049 11.4441C32.3021 11.4441 37.2375 13.5543 40.9514 17.3808C45.8981 22.4828 47.8458 29.9914 46.0419 36.9774C45.1531 40.4099 43.3945 43.5538 40.9514 46.0736C38.512 48.5895 35.46 50.4072 32.1319 51.3238C30.4716 51.7802 28.7546 52.0142 27.0338 52.0142C21.7807 52.0142 16.8453 49.904 13.1314 46.0775C8.18466 40.9755 6.23696 33.4669 8.04094 26.4809C8.9297 23.0484 10.6883 19.9045 13.1314 17.3847C15.5708 14.8688 18.6228 13.0511 21.9509 12.1345C23.6112 11.6781 25.3282 11.4441 27.049 11.4441V11.4441ZM27.049 9.88385C25.2034 9.88385 23.3578 10.1296 21.5614 10.625C18.082 11.5806 14.7917 13.4607 12.0611 16.2769C9.33058 19.0932 7.50769 22.4867 6.58111 26.0752C4.69393 33.3616 6.51682 41.4592 12.0611 47.1775C16.1948 51.4408 21.6143 53.5706 27.0338 53.5706C28.8794 53.5706 30.725 53.3248 32.5214 52.8295C36.0008 51.8738 39.2911 49.9898 42.0217 47.1775C44.7522 44.3613 46.5751 40.9677 47.5017 37.3792C49.3889 30.0929 47.566 21.9952 42.0217 16.2769C37.888 12.0136 32.4685 9.88385 27.049 9.88385V9.88385ZM82.0005 79.6227L81.1458 78.7411L75.0607 72.4651L68.1776 65.366L55.2131 51.9947H55.2093L54.3659 51.121L52.7624 52.7748L47.6794 47.5324C50.8676 43.117 52.7586 37.6444 52.7586 31.7272C52.7586 17.1 41.2237 5.20312 27.0414 5.20312C12.8591 5.20312 1.32422 17.1 1.32422 31.7272C1.32422 46.3545 12.8591 58.2513 27.0414 58.2513C32.4874 58.2513 37.5401 56.4921 41.7002 53.5004L46.8815 58.8442L45.2741 60.498L72.1108 88.1767L72.9088 88.9997L74.5577 87.2991C75.2763 87.8256 76.1196 88.0909 76.963 88.0909C78.0295 88.0909 79.0922 87.6735 79.9053 86.8388C81.3576 85.3371 81.5051 82.9967 80.3516 81.3233L82.0005 79.6227V79.6227ZM27.0414 56.691C13.6949 56.691 2.83699 45.4924 2.83699 31.7272C2.83699 17.962 13.6949 6.76337 27.0414 6.76337C40.3879 6.76337 51.2458 17.962 51.2458 31.7272C51.2458 45.4924 40.3879 56.691 27.0414 56.691ZM42.9293 52.5603C44.3173 51.433 45.5956 50.1614 46.734 48.7611L51.6921 53.8787L47.948 57.7403L42.9293 52.5603V52.5603ZM78.8351 85.7349C77.9728 86.6243 76.6604 86.7686 75.6507 86.1718L79.2586 82.4506C79.8373 83.4921 79.6973 84.8456 78.8351 85.7349ZM72.9088 86.792L67.0392 80.7383L60.1561 73.6392L47.4147 60.498L54.3659 53.3287L67.1073 66.4699L73.9904 73.5689L79.86 79.6227L72.9088 86.792Z" fill="#333333"/>
<path d="M39.7057 38.5258C40.7911 37.4102 41.7933 36.0957 42.2396 34.5588C42.9354 32.1795 42.024 29.0512 39.5695 28.1814C38.1551 27.6782 36.8692 28.2321 35.5228 28.7001C35.3186 28.7704 35.1182 28.8367 34.9177 28.8913C34.1992 29.1019 33.4806 29.215 32.7166 29.0629C31.0904 28.7353 30.595 27.491 30.2584 26.0048C29.5474 22.8804 28.9763 19.5727 26.7866 17.1505C26.6958 17.0452 26.5975 16.9437 26.4991 16.8423C24.5401 14.8725 21.628 14.1977 19.3172 15.953C19.0714 16.1402 18.852 16.3313 18.6554 16.5303C16.5867 18.5976 17.101 21.2578 18.0692 23.9492C18.3604 24.7722 18.7878 25.997 18.2583 26.8123C17.6759 27.7172 16.2349 27.6197 15.3386 27.803C14.0717 28.0643 13.0165 28.6611 12.2337 29.7416C9.83969 33.0493 11.6966 37.1449 13.7237 40.0665C14.8432 41.6774 16.8401 43.3508 17.4565 45.2153C17.8839 46.4947 17.7061 48.0198 17.4641 49.4513C17.8536 49.6737 18.2507 49.8843 18.6554 50.0793C18.8407 50.1691 19.0298 50.2549 19.2189 50.3407C21.5788 51.3977 24.1392 51.9672 26.7866 51.9984C26.8698 52.0023 26.953 52.0023 27.0362 52.0023C28.7569 52.0023 30.4739 51.7722 32.1342 51.3158C33.0873 51.0545 34.0176 50.719 34.9177 50.3095C36.6574 49.5255 38.2799 48.484 39.7359 47.2163C40.1557 46.8535 40.5642 46.4674 40.9537 46.0656C41.0482 45.9681 41.1428 45.8667 41.2336 45.7653C40.7911 44.7472 39.9628 43.9554 38.7261 43.4717C38.4085 43.3469 37.6067 43.2806 37.41 43.0114C36.8011 42.1884 37.1566 41.0416 37.7239 40.4097C38.3328 39.731 39.0741 39.1811 39.7057 38.5258ZM24.2073 25.8098C25.391 25.8098 26.4046 26.586 26.7866 27.6743C26.8962 27.9746 26.9567 28.3023 26.9567 28.6455C26.9567 28.9888 26.8962 29.3164 26.7866 29.6168C26.4046 30.7051 25.391 31.4813 24.2073 31.4813C22.6907 31.4813 21.454 30.2097 21.454 28.6455C21.454 27.0814 22.6907 25.8098 24.2073 25.8098ZM23.6211 39.6569C22.9857 40.3629 22.1196 40.7725 21.1855 40.8115C21.1401 40.8115 21.0947 40.8154 21.0494 40.8154C20.1644 40.8154 19.3248 40.4761 18.6705 39.852C18.6667 39.8481 18.6592 39.8403 18.6554 39.8364C17.2523 38.4829 17.1729 36.2049 18.4814 34.7461C18.5381 34.6837 18.5949 34.6252 18.6554 34.5667C19.9828 33.2795 22.0743 33.256 23.432 34.551C24.1203 35.2063 24.5174 36.0957 24.5514 37.063C24.5892 38.0265 24.2564 38.947 23.6211 39.6569ZM30.9996 48.5191C30.3113 49.2875 29.3696 49.6776 28.4279 49.6776C27.8644 49.6776 27.2971 49.5372 26.7866 49.2524C26.5218 49.112 26.276 48.9326 26.0491 48.7141C24.6308 47.3606 24.5476 45.071 25.86 43.6082C26.1361 43.3001 26.45 43.0544 26.7866 42.8749C28.0648 42.1728 29.6911 42.3444 30.8105 43.4132C32.225 44.7667 32.312 47.0564 30.9996 48.5191Z" fill="#1873B4"/>
<path d="M24.2092 29.9211C24.89 29.9211 25.4459 29.3477 25.4459 28.6456C25.4459 27.9435 24.89 27.3701 24.2092 27.3701C23.5285 27.3701 22.9688 27.9396 22.9688 28.6456C22.9688 29.3516 23.5247 29.9211 24.2092 29.9211Z" fill="#1873B4"/>
<path d="M21.0543 35.1484C20.5172 35.1484 19.984 35.3708 19.5907 35.8076C18.8456 36.6385 18.8948 37.9374 19.7003 38.7097C20.0899 39.0802 20.6004 39.2753 21.1299 39.2519C21.6594 39.2324 22.151 38.9983 22.5141 38.5966C22.8583 38.2143 23.0436 37.7189 23.0436 37.1963V37.1221C23.0209 36.5761 22.794 36.069 22.4044 35.6945C22.0224 35.3279 21.5384 35.1484 21.0543 35.1484Z" fill="#1873B4"/>
<path d="M28.4326 44.0146C27.8956 44.0146 27.3623 44.2331 26.969 44.6699C26.9009 44.7441 26.8404 44.826 26.7875 44.9079C26.3223 45.6061 26.3298 46.5344 26.7875 47.2248C26.8707 47.3497 26.969 47.4667 27.0787 47.572C27.8842 48.3404 29.1436 48.2897 29.8886 47.4589C30.6375 46.6281 30.5883 45.3292 29.7828 44.5568C29.4008 44.1941 28.9129 44.0146 28.4326 44.0146Z" fill="#1873B4"/>
<path d="M38.2773 55.5713C37.5511 55.9418 36.8061 56.2734 36.0422 56.5698C35.6715 56.7142 35.2971 56.8468 34.9189 56.9755C32.6498 57.7322 30.2407 58.1691 27.7484 58.2393C27.5101 58.2471 27.2718 58.251 27.0336 58.251C26.9504 58.251 26.871 58.251 26.7878 58.2471C26.4398 58.2471 26.0919 58.2354 25.7477 58.2159C25.7288 58.4577 25.7855 58.7113 25.9595 58.9453C26.8861 60.1818 27.0109 61.8903 26.194 63.2204C25.6078 64.1682 24.7001 64.8469 24.2728 65.904C23.5996 67.5812 24.1971 69.2039 25.7931 69.9528C26.1108 70.101 26.4474 70.2219 26.7878 70.3C27.9677 70.5769 29.2158 70.3897 30.0969 69.4496C30.7663 68.7397 31.1748 67.7919 31.7043 66.9805C31.9955 66.532 32.5439 65.4164 33.1565 65.709C33.6444 65.9391 33.4742 66.4891 33.6709 66.9844C33.9281 67.628 34.3781 68.0727 34.9189 68.2872C35.4484 68.5018 36.0686 68.4901 36.6775 68.2248C38.2811 67.5266 38.5571 65.6465 38.1411 64.0707C37.8726 63.0409 37.2108 62.4636 38.2168 61.3052C38.4626 61.0204 38.9051 60.8644 39.1963 60.6226C39.8392 60.0843 40.3687 59.4563 40.5238 58.6021C40.8036 57.0652 39.5178 56.2266 38.2773 55.5713ZM30.0667 63.314C28.8489 63.314 28.8489 61.3637 30.0667 61.3637C31.2845 61.3637 31.2807 63.314 30.0667 63.314ZM33.0922 61.6289C31.8745 61.6289 31.8745 59.6786 33.0922 59.6786C34.31 59.6786 34.3062 61.6289 33.0922 61.6289Z" fill="#1873B4"/>
<path d="M1.07486 12.6768H0.950052C0.450836 12.6768 -0.0219064 13.1253 0.000785209 13.6519C0.0234768 14.1785 0.416798 14.6271 0.94627 14.6271H1.07107C1.56651 14.6271 2.03925 14.1785 2.01656 13.6519C1.99387 13.1253 1.60055 12.6768 1.07107 12.6768H1.07486Z" fill="#1873B4"/>
<path d="M11.4734 5.13682C11.9689 5.13682 12.4416 4.68825 12.4189 4.16167C12.3962 3.63509 12.0029 3.18652 11.4734 3.18652H11.3486C10.8532 3.18652 10.3804 3.63509 10.4031 4.16167C10.4258 4.68825 10.8191 5.13682 11.3486 5.13682H11.4734Z" fill="#1873B4"/>
<path d="M8.51189 53.3758C8.00133 53.3992 7.56641 53.8049 7.56641 54.351V54.4797C7.56641 54.9907 8.00133 55.4782 8.51189 55.4548C9.02245 55.4314 9.45738 55.0258 9.45738 54.4797V54.351C9.45738 53.84 9.02245 53.3524 8.51189 53.3758Z" fill="#1873B4"/>
<path d="M22.9455 59.617C22.4349 59.6404 22 60.0461 22 60.5922V60.7209C22 61.2319 22.4349 61.7194 22.9455 61.696C23.456 61.6726 23.891 61.267 23.891 60.7209V60.5922C23.891 60.0812 23.456 59.5936 22.9455 59.617Z" fill="#1873B4"/>
<path d="M20.1095 62.62C19.599 62.6434 19.1641 63.049 19.1641 63.5951V63.7238C19.1641 64.2348 19.599 64.7224 20.1095 64.699C20.6201 64.6756 21.055 64.2699 21.055 63.7238V63.5951C21.055 63.0841 20.6201 62.5965 20.1095 62.62Z" fill="#1873B4"/>
<path d="M37.3205 5.92065C37.831 5.89725 38.266 5.49158 38.266 4.9455V4.81678C38.266 4.3058 37.831 3.81823 37.3205 3.84163C36.8099 3.86503 36.375 4.2707 36.375 4.81678V4.9455C36.375 5.45648 36.8099 5.94405 37.3205 5.92065Z" fill="#1873B4"/>
<path d="M35.172 2.08276C35.6826 2.05936 36.1175 1.65369 36.1175 1.10761V0.97889C36.1175 0.467911 35.6826 -0.019664 35.172 0.00373958C34.6615 0.0271432 34.2266 0.432806 34.2266 0.97889V1.10761C34.2266 1.61859 34.6615 2.10616 35.172 2.08276Z" fill="#1873B4"/>
<path d="M33.0939 4.68042C33.6045 4.65701 34.0394 4.25135 34.0394 3.70527V3.57655C34.0394 3.06557 33.6045 2.57799 33.0939 2.6014C32.5834 2.6248 32.1484 3.03046 32.1484 3.57655V3.70527C32.1484 4.21624 32.5834 4.70382 33.0939 4.68042Z" fill="#1873B4"/>
<path d="M18.6554 34.5667V16.5303C16.5867 18.5976 17.101 21.2578 18.0692 23.9492C18.3604 24.7722 18.7878 25.997 18.2583 26.8123C17.6759 27.7172 16.2349 27.6197 15.3386 27.803C14.0717 28.0643 13.0165 28.6611 12.2337 29.7416C9.83969 33.0493 11.6966 37.1449 13.7237 40.0665C14.8432 41.6774 16.8401 43.3508 17.4565 45.2153C17.8839 46.4947 17.7061 48.0198 17.4641 49.4513C17.8536 49.6737 18.2507 49.8843 18.6554 50.0793V39.8364C17.2523 38.4829 17.1729 36.2049 18.4814 34.7461C18.5381 34.6837 18.5949 34.6252 18.6554 34.5667Z" fill="#53B8DE"/>
<path d="M1.07486 12.6768H0.950052C0.450836 12.6768 -0.0219064 13.1253 0.000785209 13.6519C0.0234768 14.1785 0.416798 14.6271 0.94627 14.6271H1.07107C1.56651 14.6271 2.03925 14.1785 2.01656 13.6519C1.99387 13.1253 1.60055 12.6768 1.07107 12.6768H1.07486Z" fill="#53B8DE"/>
<path d="M11.4734 5.13682C11.9689 5.13682 12.4416 4.68825 12.4189 4.16167C12.3962 3.63509 12.0029 3.18652 11.4734 3.18652H11.3486C10.8532 3.18652 10.3804 3.63509 10.4031 4.16167C10.4258 4.68825 10.8191 5.13682 11.3486 5.13682H11.4734Z" fill="#53B8DE"/>
<path d="M8.51189 53.3758C8.00133 53.3992 7.56641 53.8049 7.56641 54.351V54.4797C7.56641 54.9907 8.00133 55.4782 8.51189 55.4548C9.02245 55.4314 9.45738 55.0258 9.45738 54.4797V54.351C9.45738 53.84 9.02245 53.3524 8.51189 53.3758Z" fill="#53B8DE"/>
<path opacity="0.7" d="M22.9688 28.6456C22.9688 29.3477 23.5247 29.9211 24.2092 29.9211C24.8938 29.9211 25.4459 29.3477 25.4459 28.6456C25.4459 27.9435 24.89 27.3701 24.2092 27.3701C23.5285 27.3701 22.9688 27.9396 22.9688 28.6456Z" fill="#53B8DE"/>
<path opacity="0.7" d="M22.5141 38.5956C22.8583 38.2133 23.0436 37.718 23.0436 37.1953V37.1212C23.0209 36.5751 22.794 36.068 22.4044 35.6935C22.0224 35.3269 21.5384 35.1475 21.0543 35.1475C20.5172 35.1475 19.984 35.3698 19.5907 35.8067C18.8456 36.6375 18.8948 37.9364 19.7003 38.7087C20.0899 39.0793 20.6004 39.2743 21.1299 39.2509C21.6594 39.2314 22.151 38.9974 22.5141 38.5956Z" fill="#53B8DE"/>
<path opacity="0.7" d="M22.9455 59.616C22.4349 59.6394 22 60.0451 22 60.5912V60.7199C22 61.2309 22.4349 61.7185 22.9455 61.6951C23.456 61.6717 23.891 61.266 23.891 60.7199V60.5912C23.891 60.0802 23.456 59.5926 22.9455 59.616Z" fill="#53B8DE"/>
<path opacity="0.7" d="M20.1095 62.62C19.599 62.6434 19.1641 63.049 19.1641 63.5951V63.7238C19.1641 64.2348 19.599 64.7224 20.1095 64.699C20.6201 64.6756 21.055 64.2699 21.055 63.7238V63.5951C21.055 63.0841 20.6201 62.5965 20.1095 62.62Z" fill="#53B8DE"/>
<path opacity="0.7" d="M26.7874 27.6743V17.1505C26.6967 17.0452 26.5983 16.9437 26.5 16.8423C24.5409 14.8725 21.6289 14.1977 19.3181 15.953C19.0723 16.1402 18.8529 16.3313 18.6562 16.5303V34.5666C19.9837 33.2794 22.0751 33.256 23.4328 34.551C24.1212 35.2063 24.5183 36.0957 24.5523 37.063C24.5901 38.0265 24.2573 38.947 23.6219 39.6569C22.9866 40.3629 22.1205 40.7725 21.1864 40.8115C21.141 40.8115 21.0956 40.8154 21.0502 40.8154C20.1652 40.8154 19.3257 40.4761 18.6714 39.852C18.6676 39.8481 18.66 39.8403 18.6562 39.8364V50.0793C18.8416 50.169 19.0307 50.2549 19.2198 50.3407C21.5797 51.3977 24.1401 51.9672 26.7874 51.9984V49.2524C26.5227 49.112 26.2769 48.9326 26.0499 48.7141C24.6317 47.3606 24.5485 45.071 25.8608 43.6082C26.1369 43.3001 26.4508 43.0544 26.7874 42.8749V29.6168C26.4054 30.7051 25.3919 31.4813 24.2081 31.4813C22.6916 31.4813 21.4549 30.2097 21.4549 28.6455C21.4549 27.0814 22.6916 25.8098 24.2081 25.8098C25.3919 25.8098 26.4054 26.586 26.7874 27.6743Z" fill="#53B8DE"/>
<path opacity="0.7" d="M25.9595 58.9452C26.8861 60.1817 27.0109 61.8902 26.194 63.2203C25.6078 64.1681 24.7001 64.8468 24.2728 65.9039C23.5996 67.5812 24.1971 69.2038 25.7931 69.9527C26.1108 70.1009 26.4474 70.2219 26.7878 70.2999V58.247C26.4398 58.247 26.0919 58.2353 25.7477 58.2158C25.7288 58.4577 25.7855 58.7112 25.9595 58.9452Z" fill="#53B8DE"/>
<path opacity="0.7" d="M26.7875 47.2242V44.9072C26.3223 45.6054 26.3298 46.5338 26.7875 47.2242Z" fill="#53B8DE"/>
<path opacity="0.38" d="M35.172 -0.000166668C34.6615 0.0232369 34.2266 0.428899 34.2266 0.974983V1.1037C34.2266 1.61468 34.6615 2.10226 35.172 2.07885C35.6826 2.05545 36.1175 1.64979 36.1175 1.1037V0.974983C36.1175 0.464005 35.6826 -0.0235703 35.172 -0.000166668Z" fill="#53B8DE"/>
<path opacity="0.38" d="M33.0939 4.68042C33.6045 4.65701 34.0394 4.25135 34.0394 3.70527V3.57655C34.0394 3.06557 33.6045 2.57799 33.0939 2.6014C32.5834 2.6248 32.1484 3.03046 32.1484 3.57655V3.70527C32.1484 4.21624 32.5834 4.70382 33.0939 4.68042Z" fill="#53B8DE"/>
<path opacity="0.38" d="M32.7191 29.0628C31.0929 28.7352 30.5975 27.4909 30.2609 26.0048C29.5499 22.8804 28.9788 19.5727 26.7891 17.1504V27.6742C26.8987 27.9746 26.9592 28.3022 26.9592 28.6455C26.9592 28.9887 26.8987 29.3164 26.7891 29.6167V42.8748C28.0674 42.1727 29.6936 42.3444 30.813 43.4131C32.2275 44.7666 32.3145 47.0563 31.0021 48.519C30.3138 49.2874 29.3721 49.6775 28.4304 49.6775C27.8669 49.6775 27.2996 49.5371 26.7891 49.2523V51.9984C26.8723 52.0023 26.9555 52.0023 27.0387 52.0023C28.7595 52.0023 30.4765 51.7721 32.1367 51.3157C33.0898 51.0544 34.0201 50.719 34.9202 50.3094V28.8912C34.2017 29.1018 33.4831 29.2149 32.7191 29.0628Z" fill="#53B8DE"/>
<path opacity="0.38" d="M29.8903 47.4589C30.6391 46.6281 30.5899 45.3292 29.7844 44.5568C29.4024 44.1941 28.9145 44.0146 28.4342 44.0146C27.8972 44.0146 27.3639 44.2331 26.9706 44.6699C26.9025 44.7441 26.842 44.826 26.7891 44.9079V47.2248C26.8723 47.3497 26.9706 47.4667 27.0803 47.572C27.8858 48.3404 29.1452 48.2897 29.8903 47.4589Z" fill="#53B8DE"/>
<path opacity="0.38" d="M27.0349 58.2511C26.9517 58.2511 26.8723 58.2511 26.7891 58.2472V70.3C27.969 70.577 29.2171 70.3897 30.0983 69.4497C30.7677 68.7398 31.1761 67.7919 31.7056 66.9806C31.9968 66.5321 32.5452 65.4165 33.1578 65.709C33.6457 65.9392 33.4755 66.4891 33.6722 66.9845C33.9294 67.6281 34.3794 68.0728 34.9202 68.2873V56.9756C32.6511 57.7323 30.242 58.1692 27.7497 58.2394C27.5114 58.2472 27.2732 58.2511 27.0349 58.2511ZM33.0936 59.6787C34.3113 59.6787 34.3076 61.629 33.0936 61.629C31.8796 61.629 31.8758 59.6787 33.0936 59.6787ZM30.068 61.3638C31.2858 61.3638 31.282 63.3141 30.068 63.3141C28.854 63.3141 28.8502 61.3638 30.068 61.3638Z" fill="#53B8DE"/>
</g>
<defs>
<clipPath id="clip0_1621_11993">
<rect width="82" height="89" fill="white"/>
</clipPath>
</defs>
</svg>
