<svg width="214" height="232" viewBox="0 0 214 232" fill="none" xmlns="http://www.w3.org/2000/svg">
<g clip-path="url(#clip0_1621_12200)">
<path d="M108.367 92.4459L136.655 65.4204L109.096 36.1016L120.988 24.9355L159.623 66.0312L119.637 104.233L108.367 92.4459Z" fill="#1873B4"/>
<path d="M65.0781 45.3276L85.9237 67.5096L67.3192 85.2873C69.9249 90.3345 73.292 94.728 77.1952 98.4143L108.893 68.1311L73.7745 30.7539C70.0215 35.1046 67.0941 40.0446 65.0889 45.3276H65.0781Z" fill="#1873B4"/>
<g opacity="0.4">
<path d="M108.367 92.4459L136.655 65.4204L109.096 36.1016L120.988 24.9355L159.623 66.0312L119.637 104.233L108.367 92.4459Z" fill="#53B8DE"/>
</g>
<path opacity="0.7" d="M65.0781 45.3276L85.9237 67.5096L67.3192 85.2873C69.9249 90.3345 73.292 94.728 77.1952 98.4143L108.893 68.1311L73.7745 30.7539C70.0215 35.1046 67.0941 40.0446 65.0889 45.3276H65.0781Z" fill="#53B8DE"/>
<path d="M5.40625 87.5919L28.7611 65.2707L6.00674 41.0634L15.8291 31.8477L47.7301 65.785L14.7139 97.322L5.40625 87.5919Z" fill="#53B8DE"/>
<path d="M171.664 87.5919L195.03 65.2707L172.275 41.0634L182.098 31.8477L213.999 65.785L180.982 97.322L171.664 87.5919Z" fill="#1873B4"/>
<path d="M142.039 140.066V202.54H204.554V140.066H142.039V140.066ZM200.265 198.254H146.328V144.353H200.265V198.254Z" fill="black"/>
<path d="M31.5468 158.627C23.9871 158.627 17.832 164.778 17.832 172.333C17.832 179.887 23.9871 186.038 31.5468 186.038C39.1066 186.038 45.2616 179.887 45.2616 172.333C45.2616 164.778 39.1066 158.627 31.5468 158.627ZM31.5468 181.752C26.3461 181.752 22.1213 177.53 22.1213 172.333C22.1213 167.135 26.3461 162.913 31.5468 162.913C36.7475 162.913 40.9724 167.135 40.9724 172.333C40.9724 177.53 36.7475 181.752 31.5468 181.752Z" fill="black"/>
<path d="M174.251 157.084L157.094 185.181H190.925L174.251 157.084ZM174.197 165.4L183.397 180.895H164.739L174.197 165.4Z" fill="black"/>
<path d="M138.392 116.171C152.986 108.67 163.795 95.9284 168.824 80.2724C173.853 64.6164 172.491 47.9639 164.985 33.3795C157.479 18.7951 144.729 7.99342 129.063 2.96765C113.396 -2.05813 96.7327 -0.697202 82.1386 6.80395C51.9639 22.2992 40.0399 59.4406 55.5454 89.5845C61.2501 100.676 70.0752 109.655 81.0556 115.549L75.9728 131.366L70.8365 129.716L62.5047 155.648V140.057H0V202.53H47.4602L42.2167 218.862L47.5567 220.576C47.3423 222.58 47.7069 224.584 48.6398 226.384C49.8944 228.827 52.0283 230.649 54.6554 231.496C55.7063 231.828 56.7678 231.989 57.808 231.989C61.4538 231.989 64.9066 230.049 66.7725 226.738L72.1125 228.452L80.4444 202.53H133.545V140.057H100.518L100.765 139.306L95.6389 137.656L100.614 122.172C113.621 124.261 126.682 122.182 138.413 116.16L138.392 116.171ZM59.513 87.5592C52.5537 74.0357 51.2884 58.5833 55.9529 44.0633C60.6174 29.5432 70.6435 17.7128 84.176 10.7688C92.4971 6.49319 101.397 4.46788 110.169 4.46788C130.896 4.46788 150.916 15.7732 161.017 35.4262C175.397 63.3948 164.331 97.8465 136.344 112.217C122.811 119.171 107.348 120.436 92.8188 115.774C78.289 111.113 66.4508 101.093 59.4915 87.5699L59.513 87.5592ZM4.28922 198.255V144.354H58.2262V169.011L48.8328 198.266H4.28922V198.255ZM56.0065 227.263C53.6796 226.513 52.0819 224.402 51.9532 221.991L62.376 225.334C60.8748 227.209 58.3334 228.002 56.0065 227.263V227.263ZM69.228 222.869L47.8141 216L73.7317 135.32L95.1457 142.189L69.228 222.869V222.869ZM129.245 144.354V198.255H81.8062L87.854 179.427H116.645V175.141H89.2265L91.0709 169.408H116.645V165.121H92.4435L99.1132 144.354H129.234H129.245ZM91.3711 136.306L80.2085 132.727L85.0874 117.542C88.6797 119.15 92.4113 120.414 96.1858 121.304L91.3604 136.306H91.3711Z" fill="black"/>
<path d="M110.264 112.205C113.856 112.205 117.459 111.819 120.997 111.059C138.669 107.222 153.07 94.1703 158.592 76.9927C162.731 64.1014 161.606 50.3743 155.408 38.3296C153.381 34.3861 150.84 30.7105 147.869 27.4315C141.907 20.8412 134.272 15.9226 125.791 13.2007C117.309 10.4789 108.237 10.0395 99.5512 11.9255C81.8797 15.7618 67.4786 28.8138 61.9562 45.9915C57.8171 58.8827 58.943 72.6099 65.141 84.6546C67.1676 88.598 69.709 92.2736 72.6793 95.5527C78.6413 102.143 86.2761 107.062 94.758 109.783C99.7872 111.402 105.02 112.205 110.264 112.205V112.205ZM75.9713 92.5629C73.2583 89.5625 70.9421 86.2191 69.0871 82.6185C63.436 71.6347 62.4066 59.1078 66.1811 47.3417C71.2102 31.675 84.3567 19.7696 100.484 16.2655C103.712 15.5689 106.993 15.2153 110.274 15.2153C115.057 15.2153 119.839 15.9547 124.418 17.4228C132.149 19.9089 139.119 24.3881 144.556 30.3998C147.269 33.4002 149.585 36.7436 151.44 40.3442C157.091 51.328 158.121 63.8549 154.346 75.621C149.317 91.2877 136.17 103.193 120.043 106.697C112.119 108.423 103.84 108.015 96.1091 105.529C88.3778 103.043 81.4078 98.5639 75.9713 92.5522V92.5629Z" fill="black"/>
</g>
<defs>
<clipPath id="clip0_1621_12200">
<rect width="214" height="232" fill="white"/>
</clipPath>
</defs>
</svg>
