<svg width="102" height="102" viewBox="0 0 102 102" fill="none" xmlns="http://www.w3.org/2000/svg">
<path d="M39.1287 64.1602H46.9568V46.4883L39.0349 51.6914V43.4648L47.3787 38.0977H56.3084V64.1602H63.5037V71.1211H39.1287V64.1602Z" fill="#1873B4"/>
<mask id="path-2-inside-1_1621_12065" fill="white">
<path d="M101.701 50.8503C101.701 78.9342 78.9342 101.701 50.8503 101.701C22.7665 101.701 0 78.9342 0 50.8503C0 22.7665 22.7665 0 50.8503 0C78.9342 0 101.701 22.7665 101.701 50.8503ZM7.70098 50.8503C7.70098 74.681 27.0196 93.9996 50.8503 93.9996C74.681 93.9996 93.9996 74.681 93.9996 50.8503C93.9996 27.0196 74.681 7.70098 50.8503 7.70098C27.0196 7.70098 7.70098 27.0196 7.70098 50.8503Z"/>
</mask>
<path d="M101.701 50.8503C101.701 78.9342 78.9342 101.701 50.8503 101.701C22.7665 101.701 0 78.9342 0 50.8503C0 22.7665 22.7665 0 50.8503 0C78.9342 0 101.701 22.7665 101.701 50.8503ZM7.70098 50.8503C7.70098 74.681 27.0196 93.9996 50.8503 93.9996C74.681 93.9996 93.9996 74.681 93.9996 50.8503C93.9996 27.0196 74.681 7.70098 50.8503 7.70098C27.0196 7.70098 7.70098 27.0196 7.70098 50.8503Z" stroke="#DDF1F8" stroke-width="10" mask="url(#path-2-inside-1_1621_12065)"/>
<mask id="path-3-inside-2_1621_12065" fill="white">
<path d="M-0.00141144 50.8509C-0.00141144 57.5286 1.31387 64.141 3.86934 70.3104C6.4248 76.4799 10.1704 82.0856 14.8923 86.8075C19.6142 91.5293 25.2199 95.275 31.3893 97.8304C37.5588 100.386 44.1711 101.701 50.8489 101.701L50.8489 94.0415C45.177 94.0415 39.5607 92.9244 34.3205 90.7538C29.0804 88.5833 24.3191 85.4019 20.3085 81.3913C16.2979 77.3807 13.1165 72.6193 10.9459 67.3792C8.77539 62.1391 7.65823 56.5227 7.65823 50.8509H-0.00141144Z"/>
</mask>
<path d="M-0.00141144 50.8509C-0.00141144 57.5286 1.31387 64.141 3.86934 70.3104C6.4248 76.4799 10.1704 82.0856 14.8923 86.8075C19.6142 91.5293 25.2199 95.275 31.3893 97.8304C37.5588 100.386 44.1711 101.701 50.8489 101.701L50.8489 94.0415C45.177 94.0415 39.5607 92.9244 34.3205 90.7538C29.0804 88.5833 24.3191 85.4019 20.3085 81.3913C16.2979 77.3807 13.1165 72.6193 10.9459 67.3792C8.77539 62.1391 7.65823 56.5227 7.65823 50.8509H-0.00141144Z" stroke="#1873B4" stroke-width="10" mask="url(#path-3-inside-2_1621_12065)"/>
</svg>
