<svg width="102" height="102" viewBox="0 0 102 102" fill="none" xmlns="http://www.w3.org/2000/svg">
<path d="M51.9763 65.7539H37.5857V58.4414L50.7341 38.0977H60.4607V58.6992H64.3513V65.7539H60.4607V71.1211H51.9763V65.7539ZM51.9763 58.6992V51.4805C51.9763 50.8242 51.992 50.0117 52.0232 49.043C52.0545 48.0742 52.1013 47.3242 52.1638 46.793C51.9295 47.293 51.6326 47.8711 51.2732 48.5273C50.9138 49.168 50.5857 49.7227 50.2888 50.1914L46.1638 56.7305C45.742 57.4492 45.3123 58.1055 44.8748 58.6992H51.9763Z" fill="#1873B4"/>
<mask id="path-2-inside-1_1621_12084" fill="white">
<path d="M101.701 50.8503C101.701 78.9342 78.9342 101.701 50.8503 101.701C22.7665 101.701 0 78.9342 0 50.8503C0 22.7665 22.7665 0 50.8503 0C78.9342 0 101.701 22.7665 101.701 50.8503ZM7.70098 50.8503C7.70098 74.681 27.0196 93.9996 50.8503 93.9996C74.681 93.9996 93.9996 74.681 93.9996 50.8503C93.9996 27.0196 74.681 7.70098 50.8503 7.70098C27.0196 7.70098 7.70098 27.0196 7.70098 50.8503Z"/>
</mask>
<path d="M101.701 50.8503C101.701 78.9342 78.9342 101.701 50.8503 101.701C22.7665 101.701 0 78.9342 0 50.8503C0 22.7665 22.7665 0 50.8503 0C78.9342 0 101.701 22.7665 101.701 50.8503ZM7.70098 50.8503C7.70098 74.681 27.0196 93.9996 50.8503 93.9996C74.681 93.9996 93.9996 74.681 93.9996 50.8503C93.9996 27.0196 74.681 7.70098 50.8503 7.70098C27.0196 7.70098 7.70098 27.0196 7.70098 50.8503Z" stroke="#1873B4" stroke-width="10" mask="url(#path-2-inside-1_1621_12084)"/>
</svg>
