<svg width="251" height="172" viewBox="0 0 251 172" fill="none" xmlns="http://www.w3.org/2000/svg">
<g clip-path="url(#clip0_1621_12225)">
<path d="M125.79 166.843C82.7809 166.843 47.5352 132.868 45.3115 90.268H83.4878V85.1106H45.2215C45.44 65.2416 52.8311 47.0875 64.9138 33.1109L63.4742 43.6578L68.5644 44.3541L71.9578 19.5469L49.1677 29.7586L51.2629 34.4647L60.5306 30.313C47.9465 45.1148 40.2856 64.223 40.067 85.1106H26.2619C25.3235 78.7154 19.8349 73.7772 13.2022 73.7772C5.91397 73.7772 -0.0117188 79.7211 -0.0117188 87.0317C-0.0117188 94.3424 5.91397 100.286 13.2022 100.286C19.3721 100.286 24.5523 96.0185 25.9919 90.268H40.1442C42.3679 135.718 79.9273 172 125.777 172C133.567 172 141.112 170.93 148.298 168.97L145.727 164.341C139.338 165.979 132.667 166.856 125.777 166.856L125.79 166.843ZM13.215 95.1289C8.76756 95.1289 5.14273 91.4929 5.14273 87.0317C5.14273 82.5706 8.76756 78.9346 13.215 78.9346C17.6625 78.9346 21.2874 82.5706 21.2874 87.0317C21.2874 91.4929 17.6625 95.1289 13.215 95.1289V95.1289Z" fill="black"/>
<path d="M139.029 87.0319C139.029 79.7213 133.104 73.7773 125.815 73.7773C118.527 73.7773 112.602 79.7213 112.602 87.0319C112.602 94.3426 118.527 100.286 125.815 100.286C133.104 100.286 139.029 94.3426 139.029 87.0319ZM117.756 87.0319C117.756 82.5707 121.381 78.9348 125.828 78.9348C130.276 78.9348 133.901 82.5707 133.901 87.0319C133.901 91.4931 130.276 95.1291 125.828 95.1291C121.381 95.1291 117.756 91.4931 117.756 87.0319Z" fill="black"/>
<path d="M237.787 72.7454C230.807 72.7454 225.074 78.2123 224.624 85.1103H211.5C211.025 38.1005 172.771 0 125.79 0C115.378 0 105.39 1.88246 96.1484 5.29925L99.9789 9.43808C108.09 6.67886 116.766 5.15742 125.79 5.15742C169.93 5.15742 205.883 40.9499 206.359 85.1103H167.514V90.2678H206.269C205.189 110.885 196.358 129.451 182.682 143.157L185.779 132.069L180.831 130.676L174.095 154.787L198.068 147.773L196.628 142.822L187.63 145.452C201.5 130.96 210.369 111.632 211.41 90.2549H225.305C227.079 95.4639 232.002 99.2288 237.799 99.2288C245.088 99.2288 251.013 93.2849 251.013 85.9742C251.013 78.6636 245.088 72.7196 237.799 72.7196L237.787 72.7454ZM237.787 94.0843C233.339 94.0843 229.714 90.4483 229.714 85.9871C229.714 81.5259 233.339 77.89 237.787 77.89C242.234 77.89 245.859 81.5259 245.859 85.9871C245.859 90.4483 242.234 94.0843 237.787 94.0843Z" fill="black"/>
<path d="M175.046 79.9907L174.918 79.0623H168.015C167.629 76.7028 167.077 74.5625 166.228 72.203L172.167 68.7088L171.807 67.832C170.059 63.5514 167.732 59.5544 164.891 55.9442L164.313 55.2093L158.439 58.6003C156.948 56.8467 155.328 55.2221 153.606 53.7394L156.986 47.8728L156.241 47.2926C152.603 44.4689 148.605 42.161 144.364 40.4461L143.502 40.098L140.109 45.9259C137.718 45.062 135.649 44.5076 133.335 44.1337V37.429L132.397 37.3001C130.044 36.9907 127.949 36.8359 125.815 36.8359C123.682 36.8359 121.445 36.9907 119.131 37.313L118.193 37.4419V44.1337C115.892 44.5076 113.784 45.0749 111.406 45.9259L108.051 40.1367L107.177 40.4848C102.909 42.2125 98.9119 44.5205 95.2999 47.3571L94.5544 47.9373L97.8964 53.7523C96.1611 55.235 94.5415 56.8596 93.0633 58.6003L87.2533 55.235L86.6749 55.97C83.8341 59.606 81.5076 63.603 79.7723 67.8449L79.4124 68.7088L85.2738 72.2159C84.4254 74.5883 83.8727 76.7286 83.4871 79.0881H76.6873L76.5588 80.0165C76.2374 82.2986 76.0703 84.6195 76.0703 86.9016C76.0703 88.9517 76.1989 90.9244 76.5073 93.3355L76.623 94.2896H83.5256C83.9627 96.6362 84.5797 98.97 85.2866 101.02L79.2838 104.488L79.6309 105.365C81.3405 109.633 83.6285 113.643 86.4435 117.292L87.0219 118.04L93.0762 114.533C94.5544 116.273 96.174 117.898 97.9093 119.38L94.4001 125.479L95.1328 126.059C98.7576 128.909 102.742 131.243 106.971 132.983L107.845 133.344L111.432 127.194C113.797 128.045 115.918 128.612 118.219 128.986V136.103L119.157 136.232C121.483 136.555 123.669 136.709 125.841 136.709C128.013 136.709 130.07 136.568 132.422 136.245L133.361 136.116V128.986C135.674 128.612 137.744 128.058 140.135 127.194L143.708 133.37L144.582 133.009C148.837 131.268 152.822 128.947 156.446 126.111L157.192 125.531L153.657 119.368C155.392 117.885 157.012 116.26 158.49 114.52L164.609 118.065L165.187 117.318C168.002 113.669 170.303 109.659 172.013 105.391L172.36 104.514L166.28 101.007C166.987 98.9571 167.604 96.6234 168.041 94.2767H175.033L175.149 93.3226C175.445 90.9244 175.586 88.9388 175.586 86.8887C175.586 84.6066 175.419 82.2986 175.098 80.0036L175.046 79.9907ZM125.79 115.216C110.108 115.216 97.4079 102.464 97.4079 86.7469C97.4079 71.0296 110.121 58.2779 125.79 58.2779C141.459 58.2779 154.171 71.0296 154.171 86.7469C154.171 102.464 141.459 115.216 125.79 115.216Z" fill="#1873B4"/>
<path opacity="0.4" d="M97.4065 86.7477C97.4065 71.0175 110.119 58.2787 125.788 58.2787C131.65 58.2787 137.113 60.0709 141.637 63.1267L153.771 45.5141C150.815 43.4898 147.666 41.7878 144.362 40.4598L143.501 40.1117L140.108 45.9396C137.717 45.0757 135.647 44.5213 133.333 44.1474V37.4427L132.395 37.3138C130.043 37.0043 127.948 36.8496 125.814 36.8496C125.544 36.8496 125.274 36.8754 125.004 36.8754L83.9741 96.4565C84.3469 98.0424 84.7839 99.5896 85.2723 100.995L79.2695 104.463L79.6166 105.34C81.3262 109.608 83.6142 113.618 86.4292 117.267L87.0076 118.015L93.0619 114.507C94.5401 116.248 96.1597 117.873 97.895 119.355L94.3858 125.454L95.1185 126.034C95.8126 126.589 96.5325 127.092 97.2651 127.607L109.399 109.982C102.163 104.824 97.4322 96.3534 97.4322 86.7606L97.4065 86.7477Z" fill="#53B8DE"/>
<g opacity="0.7">
<path d="M172.169 68.6975L171.809 67.8207C170.061 63.54 167.734 59.543 164.894 55.9328L164.315 55.1979L158.441 58.5889C156.95 56.8354 155.33 55.2108 153.608 53.728L156.988 47.8615L156.243 47.2813C155.446 46.6624 154.61 46.0693 153.775 45.502L141.641 63.1145C149.199 68.2333 154.173 76.8978 154.173 86.7355C154.173 91.6738 152.914 96.3154 150.716 100.364L167.413 76.1241C167.092 74.8348 166.719 73.5454 166.23 72.1916L172.169 68.6975V68.6975Z" fill="#53B8DE"/>
<path d="M125.791 115.218C119.672 115.218 114.017 113.271 109.376 109.971L97.2422 127.583C100.276 129.724 103.515 131.529 106.934 132.934L107.808 133.295L111.394 127.145C113.76 127.996 115.88 128.563 118.181 128.937V136.054L119.12 136.183C121.421 136.493 123.58 136.647 125.739 136.647L147.386 105.213C142.18 111.324 134.442 115.205 125.804 115.205L125.791 115.218Z" fill="#53B8DE"/>
</g>
<path d="M143.67 133.319L144.544 132.958C148.798 131.217 152.783 128.896 156.408 126.06L157.153 125.48L153.619 119.329C155.354 117.847 156.973 116.222 158.452 114.481L164.57 118.027L165.149 117.279C167.964 113.63 170.265 109.62 171.974 105.353L172.321 104.476L166.241 100.969C166.948 98.9317 167.565 96.598 168.002 94.2385H174.995L175.11 93.2844C175.406 90.8862 175.548 88.9006 175.548 86.8505C175.548 84.5683 175.38 82.2604 175.059 79.9782L174.931 79.0499H168.028C167.861 78.0442 167.655 77.0772 167.424 76.123L150.726 100.363C149.788 102.104 148.657 103.715 147.384 105.211L125.738 136.645C125.738 136.645 125.777 136.645 125.803 136.645C127.936 136.645 130.032 136.504 132.384 136.181L133.322 136.052V128.922C135.636 128.548 137.705 127.994 140.096 127.13L143.67 133.306V133.319Z" fill="#53B8DE"/>
</g>
<defs>
<clipPath id="clip0_1621_12225">
<rect width="251" height="172" fill="white"/>
</clipPath>
</defs>
</svg>
