<svg width="1139" height="2309" viewBox="0 0 1139 2309" fill="none" xmlns="http://www.w3.org/2000/svg">
<path d="M621.337 2308.47C621.337 2308.47 577.145 2216.84 267.15 2188.04C-334.278 2132.8 -459.344 1873.29 -485.737 1819.23C-598.174 1588.93 -431.065 1322.84 -261.132 1389.01C-261.132 1389.01 -331.033 1523.28 -270.094 1648.09C-270.094 1648.09 -215.893 1556.32 -178.227 1526.5C-178.227 1526.5 -185.707 1649.35 -77.4025 1806.56C-77.4025 1806.56 -75.7554 1699.62 30.6883 1562.2C30.6883 1562.2 35.8688 1710.98 143.473 1802.13C143.473 1802.13 61.4672 1662.01 317.158 1345.6C572.848 1029.19 395.404 924.24 395.404 924.24C395.404 924.24 363.843 1026.73 227.793 1032.2C43.6247 1039.38 -25.776 742.356 218.027 623.326C455.241 507.512 737.357 689.802 835.632 891.093C876.401 974.598 942.063 1132.49 874.224 1374.6C819.744 1567.2 706.691 1710.02 747.589 1874.02C836.545 1641.73 1084.13 1397.85 1132.82 1051.88C1176.8 740.852 974.348 456.537 899.446 375.545C560.023 6.79577 6.63878 -112.719 -466.91 118.479C-1044.57 400.506 -1293.27 1094.49 -1011.1 1672.43C-583.882 2547.47 292.959 2234.22 621.337 2308.47Z" fill="#F7F7F7" fill-opacity="0.5"/>
</svg>
