<svg width="715" height="2776" viewBox="0 0 715 2776" fill="none" xmlns="http://www.w3.org/2000/svg">
<path d="M2103.21 2775.43C2103.21 2775.43 2050.08 2665.27 1677.39 2630.64C954.327 2564.23 803.966 2252.23 772.235 2187.24C637.058 1910.36 837.964 1590.46 1042.27 1670C1042.27 1670 958.228 1831.43 1031.49 1981.49C1031.49 1981.49 1096.66 1871.15 1141.94 1835.31C1141.94 1835.31 1132.95 1983 1263.15 2172C1263.15 2172 1265.14 2043.44 1393.11 1878.23C1393.11 1878.23 1399.34 2057.09 1528.7 2166.68C1528.7 2166.68 1430.11 1998.23 1737.51 1617.82C2044.92 1237.41 1831.59 1111.24 1831.59 1111.24C1831.59 1111.24 1793.64 1234.45 1630.08 1241.03C1408.66 1249.67 1325.22 892.567 1618.33 749.462C1903.52 610.226 2242.7 829.383 2360.85 1071.38C2409.86 1171.78 2488.81 1361.6 2407.25 1652.69C2341.75 1884.24 2205.83 2055.94 2255 2253.1C2361.95 1973.83 2659.61 1680.63 2718.14 1264.69C2771.02 890.758 2527.62 548.94 2437.57 451.569C2029.5 8.23972 1364.19 -135.447 794.869 142.511C100.379 481.578 -198.615 1315.92 140.618 2010.75C654.24 3062.77 1708.42 2686.16 2103.21 2775.43Z" fill="#F7F7F7" fill-opacity="0.5"/>
</svg>
