<svg width="96" height="48" viewBox="0 0 96 48" fill="none" xmlns="http://www.w3.org/2000/svg">
<g clip-path="url(#clip0_1660_12481)">
<path fill-rule="evenodd" clip-rule="evenodd" d="M0 47.4839H48.5168L96 0H0V47.4839Z" fill="#333333"/>
<path fill-rule="evenodd" clip-rule="evenodd" d="M56.972 8.92781H47.5228V31.3942L39.2679 8.92781H31.0828L24.0338 27.7165C23.2842 22.9798 18.3815 21.3434 14.5265 20.1168C11.9797 19.2998 9.27925 18.0964 9.30486 16.7673C9.32581 15.678 10.7528 14.6724 13.5813 14.8167C15.4832 14.9168 17.1617 15.0704 20.4976 16.6788L23.7824 10.9645C20.7351 9.41428 16.5262 8.43434 13.0738 8.42969H13.0482C9.0255 8.42969 5.67326 9.73317 3.5944 11.8816C2.15647 13.3575 1.3463 15.333 1.33395 17.3934C1.28041 20.2913 2.34429 22.349 4.57912 23.99C6.46476 25.3726 8.87884 26.2687 11.0043 26.9275C13.6279 27.7398 15.7696 28.4474 15.744 29.9534C15.728 30.5056 15.5063 31.0319 15.1224 31.4291C14.4683 32.1041 13.4649 32.3602 12.0774 32.3834C9.4003 32.4393 7.42155 32.0203 4.25321 30.1512L1.33395 35.9494C4.59622 37.8001 8.28014 38.7796 12.0309 38.7938H12.5221C15.8394 38.7356 18.5142 37.7906 20.6536 36.0681C20.777 35.9727 20.8864 35.8726 21.0005 35.7702L20.06 38.298H28.6455L30.0865 33.9174C31.7131 34.4572 33.4173 34.7269 35.1311 34.7157C36.8016 34.7204 38.4624 34.462 40.0524 33.9499L41.4492 38.298H55.4472V29.2202H58.5014C65.881 29.2202 70.2459 25.461 70.2459 19.1648C70.2436 12.1469 66.0021 8.92781 56.972 8.92781ZM35.1311 28.1518C34.0987 28.1581 33.0735 27.9783 32.1048 27.6211L35.0985 18.1732H35.1637L38.1063 27.649C37.1501 27.9835 36.1441 28.1535 35.1311 28.1518ZM57.526 22.7214H55.4448V15.1077H57.526C60.3033 15.1077 62.5171 16.0387 62.5171 18.8645C62.5171 21.7973 60.3033 22.7214 57.526 22.7214Z" fill="white"/>
</g>
<defs>
<clipPath id="clip0_1660_12481">
<rect width="96" height="47.4839" fill="white"/>
</clipPath>
</defs>
</svg>
