<svg width="979" height="1140" viewBox="0 0 979 1140" fill="none" xmlns="http://www.w3.org/2000/svg">
<path d="M528.572 0C528.572 0 528.345 47.3158 652.027 122.612C892.117 268.426 891.435 402.412 891.435 430.392C891.435 549.592 767.297 626.707 709.776 564.378C709.776 564.378 766.388 522.522 766.388 457.917C766.388 457.917 725.009 485.215 703.183 489.992C703.183 489.992 731.375 440.174 718.188 352.366C718.188 352.366 695.68 396.725 623.153 432.439C623.153 432.439 651.345 369.2 624.972 309.145C624.972 309.145 630.656 384.441 459.228 464.514C287.8 544.587 340.547 624.66 340.547 624.66C340.547 624.66 374.651 588.263 432.627 613.741C511.066 648.318 479.463 786.626 353.279 786.626C230.506 786.626 149.795 652.868 149.795 548.682C149.795 505.461 154.569 426.07 232.325 338.718C294.394 269.336 370.786 232.712 387.156 155.824C302.579 234.759 149.34 286.17 58.3969 420.838C-23.4518 541.857 3.149 702.003 17.9272 751.139C84.543 974.524 291.438 1137.4 536.53 1137.4C835.505 1137.4 1081.05 898.091 1081.05 598.955C1081.05 146.042 650.663 98.0439 528.572 0Z" fill="url(#paint0_linear_1621_12236)"/>
<path opacity="0.6" d="M497.931 566.38C593.573 517.075 624.389 432.618 624.389 432.618C624.389 432.618 652.693 369.161 626.215 308.672C626.215 308.672 631.921 384.455 459.583 464.803C287.245 545.151 340.431 625.728 340.431 625.728C349.333 617.739 358.007 612.26 375.126 607.695C403.431 599.934 447.942 592.173 497.931 566.38Z" fill="#07C1F2"/>
<path opacity="0.4" d="M502.724 601.302C576.681 601.302 662.279 566.834 704.507 490.138C711.127 478.269 717.062 458.638 720.029 440.377C724.594 411.16 725.051 389.475 719.801 349.985C719.801 349.985 705.877 389.246 624.159 432.388C594.485 448.138 556.594 463.66 506.376 478.953C311.897 538.073 340.429 625.269 340.429 625.269C371.017 605.182 371.245 601.302 502.724 601.302Z" fill="#07C1F2"/>
<path opacity="0.2" d="M502.726 601.302C570.748 601.302 663.194 605.183 711.129 564.78C740.575 540.128 767.51 507.487 767.966 457.726C767.966 457.726 727.792 484.204 704.509 489.911C672.553 497.9 614.802 509.998 562.074 507.03C383.116 496.987 340.203 625.27 340.203 625.27C365.084 602.672 395.214 601.302 502.726 601.302Z" fill="#07C1F2"/>
<path opacity="0.4" d="M497.932 566.38C593.574 517.075 624.39 432.618 624.39 432.618C594.716 448.368 556.824 463.89 506.606 479.184C312.127 538.303 340.66 625.5 340.66 625.5C349.562 617.51 358.236 612.032 375.356 607.467C403.432 599.934 447.943 592.173 497.932 566.38Z" fill="#07C1F2"/>
<path d="M375.129 607.468C403.434 599.935 447.945 592.174 497.934 566.38C526.924 551.543 552.946 531.685 575.087 507.717C570.75 507.717 566.413 507.489 562.304 507.261C383.347 497.217 340.434 625.5 340.434 625.5C348.195 618.196 357.553 612.718 367.825 609.522C370.108 608.837 372.39 608.152 375.129 607.468Z" fill="#07C1F2"/>
<path opacity="0.4" d="M1083.65 599.704C1083.65 509.084 1066.53 434.671 1038 372.812C1040.74 381.029 1095.75 553.139 957.878 690.781C879.128 769.531 745.366 796.694 637.855 710.639C637.855 710.639 651.551 926.575 395.669 958.304C228.581 979.076 97.1021 872.705 40.2648 737.118C0.547232 642.846 -3.10496 534.421 42.3192 444.942C-21.8224 562.726 2.37333 706.302 16.0691 752.411C83.1781 976.565 290.897 1140 536.963 1140C837.128 1140 1083.65 899.869 1083.65 599.704Z" fill="#07C1F2"/>
<path opacity="0.6" d="M1028.41 836.64C1000.1 844.401 777.777 897.13 637.852 710.64C637.852 710.64 703.135 963.782 425.797 1128.59C462.319 1136.12 499.754 1140 536.96 1140C751.755 1140 939.158 1016.74 1028.41 836.64Z" fill="#07C1F2"/>
<path opacity="0.7" d="M907.659 996.653C733.952 907.174 637.625 710.412 637.625 710.412C715.006 899.185 681.451 1046.64 646.755 1128.82C744.223 1109.41 834.387 1063.53 907.659 996.653Z" fill="#07C1F2"/>
<path d="M405.484 545.607C405.484 545.835 405.484 545.835 405.484 545.607C405.255 545.835 405.255 545.835 405.484 545.607C405.255 545.378 402.745 544.922 436.984 528.03C476.245 508.628 478.756 568.433 440.18 554.737C411.875 544.465 406.397 545.378 405.484 545.607Z" fill="white"/>
<defs>
<linearGradient id="paint0_linear_1621_12236" x1="809.536" y1="1064.83" x2="278.053" y2="144.781" gradientUnits="userSpaceOnUse">
<stop stop-color="#146CD0"/>
<stop offset="1" stop-color="#0FA1EA"/>
</linearGradient>
</defs>
</svg>
